{"glyphs":{"0":{"ha":1019,"x_min":114,"x_max":903,"o":"m 795 993 l 852 937 l 903 779 l 903 620 l 851 415 l 802 276 l 703 123 l 598 22 l 439 -31 l 333 -31 l 223 23 l 167 81 l 114 241 l 116 397 l 169 603 l 216 744 l 317 895 l 421 996 l 579 1049 l 686 1049 l 795 993 m 749 905 l 667 987 l 588 987 l 506 946 l 414 855 l 323 717 l 276 581 l 226 387 l 224 252 l 270 114 l 352 31 l 428 31 l 513 72 l 606 163 l 697 301 l 744 436 l 793 632 l 793 766 l 749 905 z "},"1":{"ha":1019,"x_min":260,"x_max":710,"o":"m 707 1031 l 710 1016 l 415 -15 q 390 -31 408 -31 q 364 -21 373 -31 q 342 -31 355 -31 q 308 -10 317 -31 l 308 1 l 540 793 q 441 745 507 776 l 290 697 q 269 707 279 697 q 260 733 260 717 q 274 754 263 749 q 396 820 326 774 q 513 896 455 858 l 664 1047 q 679 1050 673 1050 q 691 1047 683 1050 q 707 1031 705 1041 z "},"2":{"ha":1019,"x_min":18,"x_max":903,"o":"m 840 997 l 852 986 l 903 883 l 903 767 l 852 661 l 742 553 l 593 456 l 400 359 l 263 265 l 172 176 l 249 175 l 491 79 l 623 79 l 705 122 l 752 213 q 773 224 757 221 q 807 205 796 224 l 808 189 l 755 32 l 742 21 l 638 -31 l 475 -29 l 233 114 l 158 114 l 120 75 l 73 -19 q 47 -31 63 -31 q 19 -10 26 -31 q 18 -1 18 -7 q 31 34 18 -1 l 120 213 l 227 318 l 664 610 l 754 701 l 795 785 l 795 865 l 752 947 l 672 989 l 535 987 l 403 943 l 364 901 l 342 855 q 363 845 352 855 q 384 824 374 835 q 406 802 384 824 q 419 776 419 788 q 418 766 419 770 l 412 757 l 353 700 q 339 697 345 697 q 301 722 321 697 q 264 760 271 754 l 260 771 l 261 833 l 314 940 l 374 997 q 532 1050 427 1015 l 689 1049 l 840 997 z "},"3":{"ha":1019,"x_min":66,"x_max":903,"o":"m 840 997 l 852 986 l 903 883 l 903 767 l 849 660 l 836 648 l 689 551 q 632 534 670 546 l 692 513 q 755 452 703 503 l 807 346 l 805 183 l 752 76 l 694 21 l 535 -31 l 333 -31 l 177 22 l 117 84 l 66 185 l 66 248 l 70 260 l 131 318 q 147 323 136 323 q 161 318 154 323 l 221 255 q 224 242 224 251 q 217 221 224 229 l 160 166 l 147 161 l 172 114 l 213 73 l 348 31 l 528 31 q 595 66 562 48 q 656 119 635 87 l 697 202 l 697 333 l 653 419 l 610 461 l 525 502 l 428 503 q 409 519 417 506 q 406 534 406 522 q 409 549 406 544 q 428 563 414 560 l 531 565 l 663 609 l 752 701 l 795 785 l 795 865 l 752 947 l 672 989 l 535 987 l 403 943 l 364 901 l 342 855 q 363 845 352 855 q 384 824 374 835 q 406 802 384 824 q 419 776 419 788 q 418 766 419 770 l 412 757 l 353 700 q 339 697 345 697 q 301 722 321 697 q 264 760 271 754 l 260 771 l 261 833 l 314 940 l 374 997 q 532 1050 427 1015 l 689 1049 l 840 997 z "},"4":{"ha":1019,"x_min":66,"x_max":903,"o":"m 854 1033 q 854 1024 854 1031 q 855 1009 855 1016 l 659 323 l 884 320 q 902 302 896 317 q 903 290 903 298 q 874 261 903 261 l 641 261 l 560 -16 q 537 -31 553 -31 q 509 -21 518 -31 q 488 -31 500 -31 q 456 -10 461 -31 l 455 4 l 529 261 l 88 261 q 69 277 73 264 q 66 290 66 282 q 70 307 66 299 l 811 1047 q 824 1050 820 1050 q 854 1033 843 1050 m 173 323 l 550 323 l 710 859 l 173 323 z "},"5":{"ha":1019,"x_min":66,"x_max":952,"o":"m 928 1049 q 947 1034 943 1046 q 952 1016 952 1022 q 934 990 952 999 l 682 940 l 431 940 l 276 626 l 384 661 l 541 661 l 694 610 q 754 550 714 590 l 807 444 l 805 280 l 755 131 q 645 21 701 75 l 488 -31 l 334 -31 l 177 22 l 117 84 l 66 185 l 66 248 l 70 260 l 131 318 q 147 323 136 323 q 161 318 154 323 l 221 255 q 224 242 224 251 q 217 221 224 229 l 160 166 l 147 161 l 172 114 l 213 73 l 348 31 l 480 31 l 565 75 l 654 164 l 697 301 l 697 430 l 653 516 l 609 559 l 524 600 l 390 598 l 260 554 l 208 506 q 183 503 199 503 q 163 531 163 512 l 164 546 l 412 1038 q 433 1050 419 1047 l 928 1049 z "},"6":{"ha":1019,"x_min":114,"x_max":903,"o":"m 733 1049 q 788 1022 751 1040 q 843 996 824 1003 l 854 984 l 903 883 l 903 815 l 899 805 l 837 747 q 826 744 832 744 q 808 749 817 744 l 749 811 q 747 826 747 815 q 749 839 747 835 l 810 901 l 823 905 l 801 947 l 720 989 l 588 989 l 500 945 l 409 849 l 317 710 q 251 490 290 638 l 324 560 l 428 612 l 593 612 l 700 557 l 755 500 l 807 396 l 805 232 l 752 126 l 645 21 l 488 -31 l 333 -31 q 223 23 260 4 l 166 81 l 114 185 l 114 397 l 167 603 l 216 744 l 317 895 l 421 997 l 579 1050 l 733 1049 m 656 510 l 576 550 l 443 550 l 362 510 l 270 419 l 224 331 l 224 154 l 265 73 l 345 31 l 477 31 l 560 70 l 653 163 l 697 248 l 697 428 l 656 510 z "},"7":{"ha":1019,"x_min":161,"x_max":952,"o":"m 318 1034 q 321 1021 321 1025 q 312 990 321 1021 l 374 1047 l 384 1050 l 491 1049 l 503 1044 l 736 903 l 813 903 l 849 943 l 898 1038 q 920 1050 902 1047 q 946 1038 934 1050 q 952 1013 952 1033 l 901 858 l 796 704 l 551 409 q 477 295 515 352 q 415 176 436 229 l 367 -15 q 349 -31 362 -25 q 314 -21 324 -31 q 295 -31 307 -31 q 268 -22 277 -31 q 260 3 260 -13 l 311 210 l 362 309 l 461 456 l 755 752 l 814 842 l 717 843 l 475 940 l 395 940 l 307 896 l 268 855 l 220 710 q 197 697 211 700 q 166 713 173 700 q 163 726 161 720 q 169 751 163 733 l 265 1037 q 289 1050 274 1049 q 318 1034 311 1047 z "},"8":{"ha":1019,"x_min":66,"x_max":903,"o":"m 840 997 l 852 986 l 903 883 l 903 719 l 849 612 l 795 557 l 785 551 q 672 524 747 541 q 700 509 681 519 l 755 452 l 807 346 l 807 183 l 752 76 l 697 22 l 686 18 l 485 -31 l 285 -31 l 131 21 l 117 35 l 66 136 l 67 302 l 120 406 l 227 513 q 286 527 246 518 q 346 543 326 537 q 309 569 331 547 l 261 670 l 261 833 l 315 940 l 374 997 l 531 1049 l 685 1049 l 840 997 m 754 946 l 673 987 l 540 987 l 459 946 q 405 886 427 925 q 371 818 389 852 l 371 686 l 412 603 l 450 565 l 572 565 l 710 610 l 749 648 l 793 735 l 793 864 l 754 946 m 656 461 l 576 502 l 440 502 l 309 459 l 221 370 l 177 285 l 177 153 l 217 72 l 296 31 l 477 31 l 612 75 l 651 113 l 697 199 l 697 380 l 656 461 z "},"9":{"ha":1019,"x_min":116,"x_max":903,"o":"m 685 1049 q 795 993 733 1027 l 852 937 l 903 833 l 903 620 l 851 415 l 802 276 l 703 123 l 598 22 l 439 -31 l 282 -29 l 175 23 l 166 34 l 116 136 l 116 204 l 120 213 l 182 271 q 192 274 185 274 q 211 268 199 274 l 271 207 q 276 194 276 202 q 271 180 276 185 l 208 119 q 197 114 204 114 l 217 72 l 298 31 l 430 31 l 518 75 l 610 169 l 703 308 q 767 528 727 380 l 694 458 l 590 406 l 425 406 l 320 459 l 264 519 l 213 622 l 213 786 l 265 892 l 374 997 l 531 1049 l 685 1049 m 754 946 l 673 987 l 540 987 l 459 946 l 367 855 l 323 770 l 323 590 l 362 509 l 443 468 l 573 468 l 657 507 l 749 598 l 793 686 l 793 864 l 754 946 z "},"!":{"ha":534,"x_min":66,"x_max":468,"o":"m 408 1041 l 463 984 l 468 969 l 270 373 q 241 356 261 356 q 211 386 211 365 q 213 399 211 390 q 214 412 214 408 l 317 991 l 373 1046 q 389 1050 378 1050 q 408 1041 400 1050 m 169 117 l 221 62 q 224 48 224 56 q 223 38 224 41 q 160 -28 204 10 q 144 -31 155 -31 l 133 -31 q 67 34 111 -10 q 66 47 66 38 q 89 87 66 66 q 129 122 125 117 q 145 128 133 128 q 169 117 158 128 z "},"\"":{"ha":1019,"x_min":163,"x_max":661,"o":"m 312 1235 l 367 1181 q 371 1145 371 1163 q 370 1129 371 1141 q 370 1109 370 1118 q 317 1002 353 1072 l 207 893 q 192 890 198 890 q 179 893 188 890 q 163 917 164 905 q 170 940 163 933 l 267 1040 l 289 1084 l 274 1091 l 217 1147 q 213 1170 213 1153 l 217 1184 l 276 1241 q 290 1244 280 1244 q 312 1235 304 1244 m 609 1230 l 656 1182 l 661 1170 l 661 1109 l 606 999 l 500 893 q 487 890 491 890 q 468 895 477 890 q 455 923 455 905 q 481 961 455 934 l 559 1040 l 581 1084 l 563 1091 l 505 1153 q 502 1163 502 1159 q 506 1179 502 1172 l 569 1241 q 581 1244 573 1244 q 609 1230 595 1244 z "},"#":{"ha":1019,"x_min":116,"x_max":903,"o":"m 554 1043 q 558 1040 554 1043 q 565 1021 562 1037 l 544 931 l 440 516 l 667 516 l 796 1034 q 821 1049 808 1049 q 849 1038 839 1049 q 855 1019 855 1031 l 730 516 l 884 515 q 902 496 898 509 q 903 485 903 493 q 901 469 903 474 q 880 455 895 458 l 716 455 l 659 224 l 833 223 q 852 210 840 220 q 855 195 855 205 q 847 172 855 180 q 811 163 839 163 l 642 163 l 513 -353 q 491 -371 505 -367 q 466 -364 474 -371 q 455 -342 458 -358 l 475 -252 l 579 163 l 352 163 l 221 -356 q 198 -371 210 -371 q 172 -361 180 -371 q 163 -340 163 -351 l 287 163 l 135 164 q 116 183 122 167 q 119 210 116 204 q 139 224 126 221 l 304 226 l 361 455 l 359 456 l 185 455 q 166 469 170 461 q 163 484 163 478 q 207 516 163 516 l 375 516 l 506 1033 q 527 1049 515 1047 q 554 1043 546 1049 m 594 224 l 650 455 l 425 455 l 368 224 l 594 224 z "},"$":{"ha":1019,"x_min":66,"x_max":952,"o":"m 603 1235 q 608 1230 603 1235 q 613 1210 613 1226 l 569 1049 l 689 1047 l 742 1030 l 799 1230 q 818 1244 804 1238 q 846 1236 836 1244 q 855 1213 855 1228 q 848 1184 855 1203 q 842 1157 842 1166 l 801 1011 l 840 997 l 902 934 l 952 833 l 952 770 l 947 758 l 887 700 q 873 697 879 697 q 857 701 865 697 l 795 764 q 793 770 795 766 q 793 776 793 773 q 801 795 793 789 l 858 852 l 871 857 l 848 905 q 818 933 843 908 q 786 950 802 950 l 667 528 q 701 507 678 521 l 755 452 l 807 348 l 807 186 l 752 76 l 694 21 l 535 -31 l 515 -31 l 463 -210 q 447 -224 456 -221 q 443 -224 446 -224 q 437 -226 440 -226 q 412 -214 421 -226 q 405 -192 405 -207 l 450 -31 l 330 -29 l 276 -12 l 220 -213 q 199 -226 214 -220 q 175 -217 188 -226 q 163 -195 163 -208 l 169 -172 l 219 7 l 179 22 l 117 84 l 66 185 l 66 248 l 70 260 l 131 318 q 147 323 136 323 q 161 318 154 323 l 223 255 q 226 242 226 246 q 219 221 226 232 l 160 166 l 147 161 l 172 114 q 202 84 186 100 q 233 67 217 67 l 374 575 l 318 609 l 264 663 l 213 770 l 213 881 l 219 893 l 326 997 l 485 1049 l 505 1047 l 554 1226 q 576 1244 562 1241 q 603 1235 593 1244 m 725 971 l 678 986 l 551 987 l 459 647 l 612 560 l 612 562 l 725 971 m 402 679 l 485 986 l 359 945 l 274 859 l 274 789 l 356 707 l 402 679 m 466 31 l 582 455 l 430 543 l 293 48 l 340 32 l 466 31 m 745 327 l 661 411 l 639 422 l 532 32 l 660 75 l 701 113 l 745 199 l 745 327 z "},"%":{"ha":1261,"x_min":114,"x_max":1049,"o":"m 503 996 l 641 952 l 774 952 l 920 1002 l 1012 1047 q 1039 1041 1030 1047 q 1049 1015 1049 1034 l 1046 1005 l 163 -26 q 145 -31 154 -31 l 136 -31 q 117 -13 126 -28 q 114 -1 114 -10 q 117 13 114 4 l 902 930 q 779 890 861 917 l 622 892 l 516 927 l 515 817 l 459 707 l 449 698 l 346 648 l 238 648 l 221 656 l 119 761 l 114 774 l 114 883 l 169 987 l 180 997 l 286 1049 l 396 1049 l 503 996 m 405 914 l 368 987 l 304 987 l 270 953 l 224 865 l 224 783 l 261 710 l 326 710 l 361 745 l 405 830 l 405 914 m 943 364 l 1046 255 l 1049 242 l 1049 136 l 994 29 l 984 21 l 879 -31 l 766 -31 l 755 -25 l 650 84 l 648 97 l 648 204 l 704 309 l 714 318 l 820 370 l 933 368 l 943 364 m 939 235 l 902 308 l 837 308 l 804 274 l 758 186 l 758 104 l 795 31 l 861 31 l 895 65 l 939 153 l 939 235 z "},"&":{"ha":1261,"x_min":67,"x_max":1195,"o":"m 747 996 l 755 984 l 807 881 l 807 770 l 802 760 l 752 661 l 644 553 l 560 513 l 566 485 l 612 349 l 669 265 l 855 559 l 955 657 l 1060 710 l 1106 710 q 1137 703 1125 710 l 1192 645 l 1195 635 l 1195 597 q 1191 563 1195 573 l 1131 506 q 1115 502 1123 502 q 1104 505 1110 502 q 1040 568 1085 519 q 1037 581 1037 572 q 1038 595 1037 591 q 1088 647 1046 604 l 1074 648 l 987 604 l 895 509 l 707 210 l 802 119 l 883 79 l 958 79 l 987 111 l 987 139 q 1005 173 987 164 q 1019 176 1013 176 q 1049 153 1044 176 l 1049 87 l 994 -21 q 972 -31 984 -31 l 864 -29 l 758 23 l 654 125 l 549 21 l 446 -29 l 282 -29 l 131 21 l 117 35 l 67 136 l 67 248 l 70 257 l 120 356 l 180 417 l 295 471 l 485 547 l 455 729 l 456 884 l 507 989 l 519 999 q 572 1024 537 1006 q 626 1050 607 1041 l 642 1047 l 747 996 m 745 864 l 704 946 l 629 983 l 557 947 l 518 867 l 518 733 l 549 576 l 609 606 l 701 695 l 745 783 l 745 864 m 554 276 q 521 375 551 287 q 494 478 500 436 l 264 364 l 223 323 l 177 236 l 177 153 l 217 72 l 296 32 l 428 32 l 513 73 l 601 158 l 616 182 l 554 276 z "},"'":{"ha":727,"x_min":163,"x_max":371,"o":"m 312 1235 l 367 1181 q 371 1145 371 1163 q 370 1129 371 1141 q 370 1109 370 1118 q 317 1002 353 1072 l 207 893 q 192 890 198 890 q 179 893 188 890 q 163 917 164 905 q 170 940 163 933 l 267 1040 l 289 1084 l 274 1091 l 217 1147 q 213 1170 213 1153 l 217 1184 l 276 1241 q 290 1244 280 1244 q 312 1235 304 1244 z "},"(":{"ha":727,"x_min":114,"x_max":760,"o":"m 760 1213 q 742 1186 757 1195 l 553 1041 l 412 852 l 317 663 l 270 515 l 223 285 l 224 47 l 276 -194 l 323 -340 q 312 -362 323 -352 q 289 -371 301 -371 q 277 -368 280 -371 l 268 -361 l 213 -248 l 161 -94 l 114 144 l 114 348 l 166 597 l 268 799 l 365 943 l 522 1098 l 717 1242 q 729 1244 722 1244 q 760 1213 754 1244 z "},")":{"ha":727,"x_min":-31,"x_max":613,"o":"m 459 1235 l 516 1120 l 566 965 l 613 729 l 612 525 l 562 279 l 461 76 l 362 -70 l 207 -223 l 10 -368 q 0 -371 7 -371 q -31 -342 -31 -371 q -22 -318 -31 -326 l 175 -170 l 317 22 l 411 210 l 458 356 l 503 587 l 503 827 l 452 1069 l 405 1211 q 415 1235 405 1226 q 439 1244 419 1241 q 459 1235 447 1244 z "},"*":{"ha":873,"x_min":211,"x_max":760,"o":"m 506 1041 l 562 986 l 566 972 l 532 801 l 666 902 q 698 903 675 903 l 736 903 q 755 888 751 899 q 758 854 758 877 l 758 814 q 742 796 752 801 l 569 727 l 747 656 q 760 619 760 644 q 758 600 760 615 q 758 573 758 585 q 720 550 751 550 q 700 550 714 550 q 672 551 685 551 l 660 556 l 532 654 l 566 484 l 562 469 l 505 412 q 478 405 494 405 l 463 414 l 409 471 l 406 487 q 440 653 417 543 l 304 553 l 290 550 q 276 551 286 551 q 261 550 271 551 q 248 550 252 550 q 214 569 221 550 q 213 601 213 579 l 213 639 q 229 659 214 650 l 402 727 l 224 799 q 211 835 211 813 q 211 855 211 840 q 214 881 213 870 q 229 902 216 893 q 261 903 239 903 l 301 903 l 311 896 q 439 801 353 864 l 406 974 l 411 987 l 466 1043 q 484 1050 477 1050 q 506 1041 497 1050 z "},"+":{"ha":1261,"x_min":66,"x_max":1002,"o":"m 663 874 q 659 857 663 873 l 550 468 l 978 466 q 999 450 991 463 q 1002 434 1002 441 q 975 406 1002 411 l 534 406 l 414 -18 q 392 -31 406 -31 q 359 -13 370 -31 q 358 -3 358 -10 q 361 16 358 6 l 469 405 l 87 406 q 67 424 76 409 q 66 436 66 428 q 92 466 66 466 l 485 466 l 604 889 q 625 903 610 901 q 663 874 663 903 z "},",":{"ha":534,"x_min":18,"x_max":224,"o":"m 169 117 l 219 66 l 224 56 l 223 -10 l 170 -117 l 62 -221 q 48 -226 57 -226 q 34 -221 40 -226 q 18 -195 18 -213 q 28 -172 18 -180 l 122 -75 l 144 -32 l 128 -26 l 69 34 q 67 47 67 38 q 91 87 67 66 q 129 122 125 117 q 145 128 133 128 q 169 117 160 128 z "},"-":{"ha":1261,"x_min":163,"x_max":1097,"o":"m 1075 466 q 1097 447 1093 461 q 1088 413 1097 421 q 1063 405 1079 405 l 1043 405 l 185 406 q 166 422 175 408 q 163 437 163 427 q 169 457 163 450 q 189 466 176 463 l 1075 466 z "},".":{"ha":534,"x_min":66,"x_max":224,"o":"m 169 117 l 221 62 q 224 48 224 56 q 223 38 224 41 q 160 -28 204 10 q 144 -31 155 -31 l 133 -31 q 67 34 111 -10 q 66 47 66 38 q 89 87 66 66 q 129 122 125 117 q 145 128 133 128 q 169 117 158 128 z "},"/":{"ha":1068,"x_min":-128,"x_max":1197,"o":"m 1194 1223 q 1197 1213 1197 1217 q 1185 1189 1197 1203 q 1167 1166 1169 1169 l -76 -362 q -100 -371 -84 -371 q -128 -340 -128 -367 q -117 -317 -128 -327 l 1144 1235 q 1163 1244 1151 1244 q 1194 1223 1186 1244 z "},":":{"ha":679,"x_min":66,"x_max":370,"o":"m 317 697 l 367 645 q 370 631 370 637 q 368 620 370 623 l 364 612 l 305 553 q 290 550 296 550 q 276 554 282 550 l 214 616 q 211 631 211 620 q 214 644 211 641 q 276 707 232 667 q 290 710 285 710 q 317 697 307 707 m 169 117 l 221 62 q 224 48 224 56 q 223 38 224 41 q 160 -28 204 10 q 144 -31 155 -31 l 133 -31 q 67 34 111 -10 q 66 47 66 38 q 89 87 66 66 q 129 122 125 117 q 145 128 133 128 q 169 117 158 128 z "},";":{"ha":727,"x_min":65,"x_max":419,"o":"m 365 697 l 415 645 q 419 629 419 641 q 418 619 419 622 q 353 554 399 597 q 340 550 346 550 q 324 554 330 550 l 263 617 q 260 632 260 626 q 261 642 260 639 q 324 705 276 660 q 339 710 330 710 q 365 697 356 710 m 268 67 l 274 54 l 273 -9 l 217 -117 l 111 -221 q 95 -226 98 -226 q 88 -224 91 -226 q 66 -205 76 -220 q 65 -195 65 -202 q 67 -180 65 -189 l 172 -73 l 191 -32 l 177 -28 l 120 31 q 113 48 114 40 q 113 53 113 50 q 114 59 114 57 l 122 67 l 179 123 q 194 128 185 128 q 232 104 210 128 q 268 67 260 72 z "},"<":{"ha":1164,"x_min":163,"x_max":1145,"o":"m 1142 889 q 1145 862 1145 880 q 1120 842 1140 848 l 263 434 l 267 431 l 989 23 q 1000 -1 1000 16 q 972 -31 996 -31 l 962 -31 l 173 414 q 163 439 163 424 q 179 463 166 458 l 1109 903 q 1142 889 1132 903 z "},"=":{"ha":1311,"x_min":114,"x_max":1195,"o":"m 1173 612 q 1195 582 1195 607 q 1188 563 1195 573 q 1163 550 1181 553 l 283 551 q 261 571 268 556 q 286 613 261 607 l 1173 612 m 1027 321 q 1050 290 1050 314 q 1041 270 1050 280 q 1016 260 1033 260 l 136 261 q 114 290 114 264 q 124 313 114 305 q 142 321 133 321 l 1027 321 z "},">":{"ha":971,"x_min":18,"x_max":953,"o":"m 945 459 q 953 431 953 447 q 937 409 950 417 l 54 -31 q 29 -25 35 -31 q 18 3 18 -15 q 32 26 21 16 l 859 439 l 852 446 l 219 854 q 213 873 213 859 q 214 883 213 880 q 239 905 219 901 l 252 902 l 945 459 z "},"?":{"ha":1019,"x_min":260,"x_max":952,"o":"m 887 997 l 902 983 l 952 881 l 952 770 l 898 661 l 839 603 l 537 500 l 466 466 l 466 400 l 499 370 l 591 368 q 610 353 603 365 q 613 337 613 345 q 611 326 613 334 q 594 309 609 317 q 541 308 576 308 l 478 308 l 466 314 l 409 371 l 405 387 l 406 494 q 421 513 408 503 l 529 565 q 647 604 588 584 q 758 657 713 628 l 802 703 l 842 785 l 842 867 l 801 947 l 720 989 l 535 987 l 403 943 l 364 901 l 342 855 q 363 845 352 855 q 384 824 374 835 q 406 802 384 824 q 419 776 419 788 q 418 766 419 770 l 411 757 l 353 700 q 339 697 345 697 q 301 722 321 697 q 264 760 271 754 l 260 771 l 261 833 l 314 940 l 374 997 q 532 1050 427 1015 l 733 1049 l 887 997 m 465 62 q 468 48 468 53 q 465 34 468 43 q 402 -29 436 1 q 389 -31 397 -31 l 378 -31 l 368 -23 l 311 32 q 309 41 311 32 q 309 59 309 48 l 315 67 l 374 125 q 389 128 383 128 q 403 123 396 128 l 465 62 z "},"@":{"ha":1311,"x_min":114,"x_max":1194,"o":"m 890 997 l 989 947 l 1096 839 l 1147 730 l 1194 585 l 1194 480 l 1142 323 l 1033 214 l 1018 211 l 917 211 q 801 271 877 229 l 789 261 l 686 213 l 525 213 l 418 265 l 408 276 l 358 381 l 358 541 l 408 694 q 469 754 449 735 l 576 807 l 735 807 l 839 755 q 845 785 842 770 q 861 804 848 799 q 873 805 864 805 q 898 795 889 805 q 923 807 906 807 q 949 792 942 804 l 952 777 l 903 375 l 903 304 l 936 273 l 1006 273 l 1090 356 l 1134 494 l 1132 579 q 1093 695 1093 695 q 1040 808 1068 761 l 949 898 l 857 945 l 719 989 l 582 987 q 466 947 525 967 q 356 895 402 923 l 265 802 q 177 573 235 751 l 177 437 q 217 321 198 380 q 268 211 242 254 l 361 120 l 453 73 l 590 31 l 727 31 q 842 70 833 67 q 953 123 908 95 q 988 157 969 139 q 1028 175 1006 175 q 1047 155 1041 172 q 1050 145 1050 150 q 1046 129 1050 135 l 989 72 l 881 18 l 729 -31 l 572 -31 l 421 21 l 321 72 l 214 179 l 161 287 l 114 431 l 116 591 l 169 745 l 217 843 l 326 949 l 434 1002 q 581 1050 483 1018 l 736 1049 l 890 997 m 802 703 l 720 745 l 595 745 l 513 661 l 469 531 l 468 397 l 509 311 l 547 273 l 670 273 l 752 314 l 793 396 l 826 653 l 802 703 z "},"A":{"ha":971,"x_min":-129,"x_max":807,"o":"m 660 1031 l 661 1015 l 708 31 l 783 31 q 807 0 807 23 q 802 -15 807 -7 q 783 -31 798 -28 l 475 -31 q 453 -4 456 -25 q 471 28 453 19 q 581 31 506 31 l 597 31 l 595 67 l 585 260 l 198 260 l 185 239 l 54 31 l 202 29 q 223 4 223 23 q 207 -29 223 -21 l 192 -31 l -104 -31 q -129 0 -129 -26 q -125 17 -129 9 q -106 31 -122 25 l -18 31 l 610 1041 q 631 1050 616 1050 q 660 1031 653 1050 m 236 321 l 581 321 l 554 837 l 236 321 z "},"B":{"ha":1164,"x_min":-31,"x_max":1049,"o":"m 986 997 l 997 986 l 1049 883 l 1049 766 l 999 616 q 937 554 959 573 q 858 528 899 541 q 903 499 876 524 l 952 396 l 952 285 l 901 129 l 792 22 l 782 18 l 582 -31 l -12 -31 q -31 0 -31 -23 q -21 23 -31 15 q 13 31 -12 31 l 122 31 l 396 987 l 285 989 q 263 1005 270 991 q 260 1018 260 1013 q 267 1038 260 1028 q 292 1049 274 1049 l 434 1049 l 835 1047 l 986 997 m 899 946 l 818 987 l 509 987 l 387 565 l 767 565 l 852 606 l 895 647 l 937 779 l 939 864 l 899 946 m 801 463 l 764 502 l 370 502 l 236 31 l 573 31 l 710 75 l 796 163 l 842 292 l 842 380 l 801 463 z "},"C":{"ha":1019,"x_min":114,"x_max":1002,"o":"m 733 1049 q 843 996 733 1049 l 886 952 l 902 952 l 946 1038 q 971 1050 952 1047 q 1002 1021 1002 1046 q 997 996 1002 1022 l 950 714 q 931 698 946 703 q 927 697 930 698 q 923 697 924 697 q 902 703 917 697 q 890 725 893 710 l 890 818 l 846 905 l 802 947 l 720 989 l 588 989 l 500 945 l 409 851 l 317 710 l 267 557 l 223 383 l 224 245 l 268 114 l 312 72 l 396 31 l 528 31 l 613 75 l 704 167 l 752 263 q 776 273 761 273 q 802 258 793 273 q 807 243 807 251 q 805 233 807 236 l 752 126 l 645 21 l 543 -31 l 378 -31 l 227 22 l 169 79 q 114 241 150 132 l 114 397 l 167 603 l 216 744 l 317 895 l 421 997 l 579 1050 l 733 1049 z "},"D":{"ha":1116,"x_min":-31,"x_max":1000,"o":"m 887 997 l 947 940 q 1000 779 953 923 l 1000 575 l 949 374 l 849 175 l 742 69 l 639 18 l 434 -31 l -10 -31 q -31 -6 -28 -25 q -23 21 -31 12 q 13 31 -15 31 l 122 31 l 396 987 l 285 989 q 263 1005 270 991 q 260 1018 260 1013 q 267 1038 260 1028 q 292 1049 274 1049 l 434 1049 l 736 1047 l 887 997 m 808 943 l 722 987 l 509 987 l 236 31 l 428 31 l 566 75 l 657 120 l 749 211 l 842 396 l 889 581 l 890 766 l 846 905 l 808 943 z "},"E":{"ha":1116,"x_min":-31,"x_max":1049,"o":"m 1031 1047 q 1049 1028 1044 1041 l 1049 1013 l 999 716 q 985 701 997 705 q 969 697 972 697 q 940 722 940 697 l 940 987 l 509 989 l 387 565 l 607 565 l 651 742 q 670 758 656 752 q 705 744 695 758 q 708 722 708 738 l 610 326 q 594 309 607 317 q 588 308 591 309 q 582 308 584 308 q 550 336 554 308 q 590 502 563 390 l 368 502 l 236 32 q 235 31 236 31 l 661 31 l 802 264 q 827 273 811 273 q 854 252 846 270 l 855 238 l 754 -18 q 733 -31 748 -28 l -10 -31 q -31 -6 -28 -25 q -23 21 -31 12 q 13 31 -15 31 l 122 31 l 396 987 l 285 989 q 263 1005 270 991 q 260 1018 260 1013 q 267 1038 260 1028 q 292 1049 274 1049 l 434 1050 l 1031 1047 z "},"F":{"ha":1068,"x_min":-31,"x_max":1049,"o":"m 1031 1047 q 1049 1028 1044 1041 l 1049 1013 l 999 716 q 985 701 997 705 q 969 697 972 697 q 940 722 940 697 l 940 987 l 509 989 l 387 565 l 607 565 l 651 742 q 670 758 656 752 q 705 744 695 758 q 708 722 708 738 l 610 326 q 594 309 607 317 q 588 308 591 309 q 582 308 584 308 q 550 336 554 308 q 590 502 563 390 l 368 502 l 236 32 q 235 31 236 31 l 346 31 q 367 15 358 29 q 370 0 370 6 q 364 -22 370 -7 q 336 -31 356 -31 l -10 -31 q -31 -6 -28 -25 q -23 21 -31 12 q 13 31 -15 31 l 122 31 l 396 987 l 285 989 q 263 1005 270 991 q 260 1018 260 1013 q 267 1038 260 1028 q 292 1049 274 1049 l 434 1050 l 1031 1047 z "},"G":{"ha":1068,"x_min":114,"x_max":1002,"o":"m 733 1049 q 843 996 733 1049 l 886 952 l 902 952 l 946 1038 q 971 1050 952 1047 q 1002 1021 1002 1046 q 997 996 1002 1022 l 950 714 q 931 698 946 703 q 927 697 930 698 q 923 697 924 697 q 902 703 917 697 q 890 725 893 710 l 890 818 l 846 905 l 802 947 l 720 989 l 588 989 l 500 945 l 409 851 l 317 710 l 267 557 l 223 383 l 224 245 l 268 114 l 312 72 l 396 31 l 480 31 l 565 75 l 656 167 l 726 307 l 620 309 q 600 337 600 314 q 608 359 600 348 q 632 370 616 370 l 980 368 q 1002 339 1002 364 q 991 316 1002 326 q 958 307 980 307 q 940 307 955 307 q 914 308 927 308 l 843 308 l 752 126 l 645 21 l 488 -31 l 381 -31 l 227 22 l 169 79 q 114 241 150 132 l 114 397 l 167 603 l 216 744 l 317 895 l 421 997 l 579 1050 l 733 1049 z "},"H":{"ha":1261,"x_min":-31,"x_max":1292,"o":"m 642 1047 q 660 1019 660 1040 q 650 995 660 1003 q 617 987 641 987 q 600 987 613 987 q 575 989 587 989 l 509 989 l 387 565 l 905 565 l 1025 989 l 915 989 q 890 1019 890 993 q 895 1035 890 1025 q 915 1049 901 1046 l 1272 1049 q 1289 1034 1280 1044 q 1291 1025 1289 1031 q 1292 1016 1292 1019 q 1289 1006 1292 1012 q 1273 990 1288 996 q 1140 989 1229 989 l 865 32 l 867 31 l 977 31 q 999 12 993 28 q 1000 0 1000 7 q 991 -23 1000 -15 l 980 -31 l 626 -31 q 600 0 600 -31 q 634 31 600 31 l 752 31 l 886 503 l 370 503 l 236 32 q 235 31 236 31 l 346 31 q 367 15 358 29 q 370 0 370 6 q 364 -22 370 -7 q 336 -31 356 -31 l -10 -31 q -31 -6 -28 -25 q -23 21 -31 12 q 13 31 -15 31 l 122 31 l 396 987 l 285 989 q 263 1005 270 991 q 260 1018 260 1013 q 267 1038 260 1028 q 292 1049 274 1049 l 434 1050 l 642 1047 z "},"I":{"ha":631,"x_min":-31,"x_max":660,"o":"m 642 1047 q 660 1019 660 1040 q 650 995 660 1003 q 617 987 641 987 q 600 987 613 987 q 575 989 587 989 l 509 989 l 236 31 l 346 31 q 367 15 358 29 q 370 0 370 6 q 364 -22 370 -7 q 336 -31 356 -31 l -10 -31 q -31 -6 -28 -25 q -23 21 -31 12 q 13 31 -15 31 l 122 31 l 395 987 l 283 989 q 263 1005 270 991 q 260 1018 260 1013 q 267 1038 260 1028 q 292 1049 274 1049 l 434 1050 l 642 1047 z "},"J":{"ha":873,"x_min":18,"x_max":902,"o":"m 884 1047 q 902 1027 899 1041 q 899 1000 902 1008 q 870 989 890 989 l 751 989 l 512 179 l 461 78 l 400 19 l 295 -31 l 186 -31 l 76 25 l 67 35 l 19 135 q 18 249 18 173 l 23 261 l 81 318 q 95 321 92 321 q 136 296 114 321 q 172 257 167 261 q 176 242 176 252 q 175 230 176 235 q 111 166 166 219 q 98 163 107 163 q 81 167 87 163 l 81 169 l 79 153 l 120 70 l 202 31 l 279 31 l 365 119 l 409 208 l 637 987 l 525 989 q 505 1005 512 991 q 502 1019 502 1013 q 507 1037 502 1028 q 527 1049 513 1046 l 676 1050 l 884 1047 z "},"K":{"ha":1116,"x_min":-31,"x_max":1244,"o":"m 642 1047 q 660 1031 653 1043 q 661 1019 661 1027 q 650 994 659 1002 q 617 987 641 987 q 600 987 613 987 q 575 989 587 989 l 509 989 l 365 484 l 1024 987 l 915 989 q 890 1019 890 993 q 895 1036 890 1027 q 915 1049 899 1046 l 1222 1049 q 1244 1024 1241 1044 q 1226 990 1244 999 q 1126 989 1198 989 l 635 613 q 657 598 651 610 l 848 31 l 928 31 q 949 15 946 25 q 952 -1 952 6 q 949 -13 952 -10 q 934 -29 946 -23 l 903 -31 l 620 -29 q 600 -1 600 -25 q 608 19 600 7 q 634 31 616 31 l 733 31 l 730 40 l 559 553 l 554 550 l 336 381 l 236 31 l 346 31 q 367 15 358 29 q 370 0 370 6 q 364 -22 370 -7 q 336 -31 356 -31 l 320 -31 l -10 -29 q -31 -6 -28 -26 q -23 21 -31 12 q 13 31 -15 31 l 122 31 l 396 987 l 285 989 q 263 1005 270 991 q 260 1018 260 1013 q 267 1038 260 1028 q 292 1049 274 1049 l 434 1050 l 642 1047 z "},"L":{"ha":971,"x_min":-31,"x_max":855,"o":"m 642 1047 q 660 1019 660 1040 q 650 995 660 1003 q 617 987 641 987 q 600 987 613 987 q 575 989 587 989 l 509 989 l 236 31 l 660 31 l 801 309 q 823 321 805 318 q 852 305 843 321 q 855 292 855 302 q 854 282 855 285 l 754 -18 q 733 -31 748 -28 l -10 -31 q -31 -6 -28 -25 q -23 21 -31 12 q 13 31 -15 31 l 122 31 l 396 987 l 285 989 q 263 1005 270 991 q 260 1018 260 1013 q 267 1038 260 1028 q 292 1049 274 1049 l 434 1050 l 642 1047 z "},"M":{"ha":1311,"x_min":-31,"x_max":1340,"o":"m 494 1049 q 513 1033 509 1043 l 518 1006 l 560 182 l 565 186 l 1094 1041 q 1116 1050 1100 1047 l 1320 1049 q 1339 1031 1332 1044 q 1340 1019 1340 1027 q 1330 996 1340 1005 q 1296 987 1320 987 q 1279 987 1292 987 q 1254 989 1266 989 l 1188 989 l 915 31 l 1025 31 q 1049 0 1049 26 q 1043 -22 1049 -13 q 1015 -31 1037 -31 l 670 -31 q 648 -6 651 -26 q 657 21 648 12 q 694 31 666 31 l 801 31 l 1019 804 l 507 -23 q 484 -31 496 -31 q 458 -16 466 -31 l 455 -3 l 415 826 l 412 824 l 186 31 l 298 31 q 320 12 314 28 q 321 0 321 7 q 311 -23 321 -16 l 301 -31 l -6 -31 q -28 -16 -19 -31 q -31 0 -31 -7 q -23 21 -31 12 q 13 31 -15 31 l 122 31 l 396 987 l 285 989 q 263 1005 270 991 q 260 1018 260 1013 q 267 1038 260 1028 q 292 1049 274 1049 l 494 1049 z "},"N":{"ha":1213,"x_min":-31,"x_max":1244,"o":"m 459 1040 l 466 1030 l 505 928 l 795 182 l 1025 989 l 915 989 q 890 1019 890 993 q 895 1036 890 1027 q 915 1049 899 1046 l 1222 1049 q 1244 1024 1241 1044 q 1226 991 1244 997 l 1210 989 l 1091 989 l 802 -16 q 783 -31 795 -29 q 755 -23 764 -31 l 748 -13 l 418 837 l 186 31 l 298 31 q 320 12 314 28 q 321 0 321 7 q 311 -23 321 -15 l 301 -29 l -6 -31 q -28 -16 -19 -31 q -31 0 -31 -7 q -23 22 -31 13 q 13 31 -15 31 l 122 31 l 396 987 l 285 989 q 263 1005 270 991 q 260 1018 260 1013 q 267 1038 260 1028 q 292 1049 274 1049 l 434 1050 q 459 1040 449 1050 z "},"O":{"ha":1068,"x_min":114,"x_max":952,"o":"m 845 993 l 901 936 l 952 777 l 952 622 l 899 418 l 852 276 l 749 122 l 644 21 l 485 -31 l 333 -31 l 223 23 l 167 81 l 114 241 l 116 397 l 169 603 l 216 744 l 317 895 l 421 996 l 579 1049 l 735 1049 l 845 993 m 798 902 l 716 987 l 588 987 l 506 946 l 414 855 l 323 717 l 276 581 l 226 387 l 224 252 l 270 114 l 352 31 l 477 31 l 560 70 l 654 164 l 745 302 l 793 437 l 842 629 l 842 767 l 798 902 z "},"P":{"ha":1116,"x_min":-31,"x_max":1097,"o":"m 1035 997 l 1046 986 l 1097 881 l 1097 767 l 1046 615 l 937 506 l 927 502 l 727 453 l 356 455 l 236 32 q 235 31 236 31 l 346 31 q 367 15 358 29 q 370 0 370 6 q 364 -22 370 -7 q 336 -31 356 -31 l -10 -31 q -31 -6 -28 -25 q -23 21 -31 12 q 13 31 -15 31 l 122 31 l 396 987 l 285 989 q 263 1005 270 991 q 260 1018 260 1013 q 267 1038 260 1028 q 292 1049 274 1049 l 434 1049 l 883 1047 l 1035 997 m 947 946 l 867 987 l 509 987 l 374 516 l 719 516 l 855 560 l 943 648 l 986 777 l 987 865 l 947 946 z "},"Q":{"ha":1068,"x_min":114,"x_max":952,"o":"m 845 993 l 901 936 l 952 777 l 952 622 l 899 418 l 852 276 l 749 122 l 644 21 q 635 18 642 18 q 660 -131 644 -40 l 692 -163 l 716 -163 l 745 -132 l 745 -106 q 764 -69 745 -76 q 776 -66 770 -66 q 793 -72 785 -66 q 808 -107 808 -82 q 807 -128 808 -113 q 807 -154 807 -142 l 752 -264 q 726 -274 742 -274 l 622 -274 l 612 -268 l 553 -210 l 550 -194 l 550 -12 l 487 -31 l 333 -31 l 223 23 l 167 81 l 114 241 l 116 397 l 169 603 l 216 744 l 317 895 l 421 996 l 579 1049 l 735 1049 l 845 993 m 798 902 l 716 987 l 588 987 l 506 946 l 414 855 l 323 717 l 276 581 l 226 387 l 226 365 q 224 327 226 352 q 224 289 224 301 q 239 208 224 238 l 261 255 l 273 268 l 374 320 q 405 323 384 323 q 443 321 431 323 l 547 271 l 559 261 l 612 158 l 617 128 l 654 164 l 745 302 l 792 437 l 842 629 l 842 767 l 798 902 m 510 219 l 430 260 l 395 260 l 314 219 l 274 138 l 274 110 l 352 31 l 478 31 l 550 67 l 550 136 l 510 219 z "},"R":{"ha":1164,"x_min":-31,"x_max":1049,"o":"m 986 997 l 997 986 l 1049 883 l 1049 766 l 999 616 q 937 554 969 584 l 779 503 l 707 503 l 754 455 l 760 441 l 852 113 l 886 79 l 909 79 l 940 111 l 940 142 q 955 172 940 166 q 971 176 961 176 q 993 166 984 176 q 1002 131 1002 155 q 1000 111 1002 125 q 1000 88 1000 98 l 946 -21 q 921 -31 939 -31 l 817 -31 l 807 -26 l 749 32 l 745 47 l 700 422 l 659 462 l 573 503 l 370 503 l 236 32 q 235 31 236 31 l 346 31 q 367 15 358 29 q 370 0 370 6 q 364 -22 370 -7 q 336 -31 356 -31 l -10 -31 q -31 -6 -28 -25 q -23 21 -31 12 q 13 31 -15 31 l 122 31 l 396 987 l 285 989 q 263 1005 270 991 q 260 1018 260 1013 q 267 1038 260 1028 q 292 1049 274 1049 l 434 1049 l 835 1047 l 986 997 m 899 946 l 818 987 l 509 987 l 387 565 l 767 565 l 852 606 l 895 647 l 939 779 l 939 864 l 899 946 z "},"S":{"ha":1116,"x_min":67,"x_max":1050,"o":"m 887 997 l 936 952 l 950 952 l 996 1038 q 1019 1050 1003 1050 q 1047 1034 1040 1046 l 1050 1016 l 999 716 q 985 701 997 705 q 969 697 972 697 q 940 722 940 697 l 940 818 l 895 905 l 855 945 l 719 989 l 535 987 l 403 943 l 321 859 l 321 789 l 409 703 l 745 510 l 802 452 l 855 343 l 855 186 l 801 78 q 735 18 780 54 l 584 -31 l 381 -31 l 227 22 l 182 66 l 164 66 l 122 -19 q 97 -31 114 -31 q 69 -16 79 -31 q 67 12 67 -15 l 116 302 q 145 321 123 321 q 176 298 172 321 l 177 198 l 220 114 l 260 75 l 396 31 l 581 31 l 710 75 l 752 119 l 793 204 l 793 327 l 704 414 l 367 607 l 311 663 l 260 769 l 260 877 l 267 893 l 375 999 l 532 1050 l 733 1049 l 887 997 z "},"T":{"ha":1019,"x_min":164,"x_max":1050,"o":"m 1028 1047 q 1050 1021 1047 1043 l 999 716 q 985 701 997 705 q 969 697 972 697 q 940 722 940 697 l 940 987 l 703 987 l 430 31 l 541 31 q 562 15 553 29 q 565 -1 565 6 q 547 -29 565 -21 l 532 -31 l 183 -31 q 164 0 164 -23 q 169 16 164 4 q 188 31 175 28 l 317 31 l 590 987 l 358 987 l 217 707 q 192 697 208 697 q 166 713 175 700 q 164 722 166 714 q 164 736 164 729 l 264 1034 q 289 1049 273 1046 l 1028 1047 z "},"U":{"ha":1213,"x_min":163,"x_max":1244,"o":"m 591 1049 q 610 1034 603 1044 q 613 1016 613 1025 q 611 1005 613 1012 q 594 990 609 997 q 461 987 550 987 l 273 283 l 273 153 l 314 72 l 396 31 l 581 31 l 710 73 l 798 161 l 849 315 l 1027 987 l 915 989 q 890 1019 890 993 q 894 1035 890 1027 q 915 1049 898 1043 l 1222 1047 q 1244 1024 1241 1044 q 1226 990 1244 999 l 1210 987 l 1091 987 l 854 131 q 744 22 818 92 q 584 -31 645 -12 l 381 -31 l 227 22 l 214 32 l 163 138 l 163 298 l 220 524 l 348 986 l 346 987 l 236 989 q 214 1006 219 991 q 211 1019 211 1012 q 216 1034 211 1025 q 236 1049 220 1043 l 591 1049 z "},"V":{"ha":971,"x_min":163,"x_max":1097,"o":"m 1076 1049 q 1097 1021 1097 1044 q 1093 999 1097 1008 q 1065 989 1084 989 l 987 989 l 362 -23 q 340 -31 355 -31 q 324 -28 333 -31 q 308 0 309 -19 l 261 987 l 186 989 q 163 1019 163 993 q 186 1049 163 1044 l 494 1049 q 515 1018 515 1041 q 510 1002 515 1012 q 490 989 506 991 l 371 989 l 377 876 l 415 182 l 419 186 l 914 987 l 766 989 q 745 1021 745 999 q 748 1033 745 1028 q 795 1049 754 1049 l 1076 1049 z "},"W":{"ha":1261,"x_min":213,"x_max":1340,"o":"m 801 1038 q 827 1049 811 1049 q 855 1028 848 1049 l 855 1013 l 780 285 l 1116 987 l 1009 989 q 989 1013 991 993 q 995 1039 989 1030 q 1022 1049 1002 1049 l 1320 1049 q 1339 1031 1332 1044 q 1340 1019 1340 1027 q 1330 996 1340 1005 q 1296 987 1320 987 l 1184 987 l 758 92 q 751 76 758 87 q 742 60 744 65 l 703 -21 q 676 -31 695 -31 q 651 -15 660 -31 l 648 -4 l 726 840 l 370 92 q 358 67 370 85 l 315 -21 q 290 -31 305 -31 q 261 -10 265 -31 l 261 4 l 355 987 l 236 989 q 214 1006 221 991 q 213 1012 214 1008 q 213 1019 213 1016 q 216 1035 213 1027 q 236 1049 219 1043 l 591 1049 q 610 1034 603 1044 q 613 1016 613 1025 q 594 990 613 999 q 465 987 551 987 l 395 286 l 751 1037 q 771 1050 755 1043 q 801 1038 789 1050 z "},"X":{"ha":1068,"x_min":-79,"x_max":1147,"o":"m 546 1047 q 565 1027 560 1041 q 559 1000 565 1008 q 531 989 550 989 l 431 989 l 565 587 l 947 987 l 818 989 q 798 1003 808 989 q 795 1019 795 1008 q 796 1033 795 1028 q 811 1047 798 1037 l 826 1049 l 1123 1049 q 1145 1033 1138 1046 q 1147 1018 1147 1028 q 1144 1005 1147 1009 q 1123 989 1137 991 l 1031 989 l 588 519 l 749 31 l 835 29 q 854 12 846 25 q 857 -1 857 3 q 852 -16 857 -9 q 830 -31 846 -28 l 524 -31 q 503 0 503 -22 q 528 31 503 26 l 637 31 l 503 431 l 437 364 l 122 31 l 249 31 q 270 15 265 25 q 274 -3 274 -3 q 254 -31 274 -19 l -56 -31 q -76 -15 -72 -28 q -79 0 -79 -10 q -71 21 -79 12 q -45 31 -63 31 l 35 31 l 481 499 l 317 989 l 236 989 q 214 1006 219 991 q 213 1019 213 1009 q 214 1034 213 1030 q 236 1049 221 1046 l 340 1050 l 546 1047 z "},"Y":{"ha":1019,"x_min":164,"x_max":1147,"o":"m 494 1049 q 515 1031 509 1044 q 516 1018 516 1027 q 512 1002 516 1012 q 491 989 507 991 l 386 987 l 544 590 l 945 987 l 818 989 q 798 1003 808 989 q 795 1019 795 1008 q 796 1033 795 1028 q 811 1047 798 1037 l 826 1049 l 1123 1049 q 1145 1033 1138 1046 q 1147 1018 1147 1028 q 1144 1005 1147 1009 q 1123 989 1140 991 l 1033 987 l 560 515 l 428 31 l 541 31 q 562 15 553 29 q 565 -1 565 6 q 547 -29 565 -21 l 532 -31 l 183 -31 q 164 0 164 -23 q 169 16 164 4 q 188 31 175 28 l 317 31 l 453 529 l 271 987 l 185 989 q 166 1006 172 993 q 164 1019 164 1011 q 169 1035 164 1024 q 186 1049 173 1046 l 290 1050 l 494 1049 z "},"Z":{"ha":1068,"x_min":18,"x_max":1050,"o":"m 1025 1049 q 1050 1019 1050 1049 q 1047 1005 1050 1013 l 1041 997 l 167 31 l 660 31 l 801 309 q 823 321 805 318 q 852 305 843 321 q 855 292 855 302 l 855 282 l 754 -18 q 733 -31 748 -28 l 38 -31 q 21 -12 25 -25 q 18 0 18 -6 q 22 16 18 9 l 899 987 l 406 989 l 267 707 q 241 697 254 697 q 214 713 224 697 q 213 727 213 717 q 214 736 213 733 l 312 1035 q 337 1050 323 1049 l 1025 1049 z "},"[":{"ha":679,"x_min":66,"x_max":855,"o":"m 833 1242 q 852 1229 840 1239 q 855 1214 855 1217 q 847 1190 855 1198 q 811 1182 839 1182 l 557 1182 l 185 -307 l 186 -308 l 443 -309 q 466 -342 466 -317 q 462 -356 466 -346 q 443 -371 458 -367 l 88 -370 q 67 -353 75 -365 q 66 -342 66 -349 q 69 -318 66 -330 l 458 1228 q 480 1244 465 1241 l 833 1242 z "},"\\":{"ha":971,"x_min":163,"x_max":807,"o":"m 214 1236 l 221 1225 l 807 -334 q 801 -359 807 -353 q 774 -371 789 -371 q 749 -356 757 -371 l 163 1210 q 194 1244 163 1244 q 214 1236 207 1244 z "},"]":{"ha":776,"x_min":-31,"x_max":757,"o":"m 736 1242 q 757 1225 749 1241 q 757 1203 757 1225 l 367 -353 q 349 -370 364 -364 l -10 -370 q -31 -345 -28 -364 q -23 -318 -31 -329 q 13 -308 -15 -308 l 267 -308 l 639 1181 l 381 1182 q 359 1200 365 1188 q 358 1216 358 1204 q 381 1244 358 1239 l 736 1242 z "},"^":{"ha":1261,"x_min":213,"x_max":1050,"o":"m 1038 993 q 1050 972 1050 981 q 1031 940 1050 953 q 1025 939 1028 940 q 1019 939 1021 939 q 1008 942 1013 939 l 631 1129 l 246 940 q 221 947 229 940 q 213 974 213 955 q 226 997 213 987 l 623 1244 q 642 1242 637 1244 l 1038 993 z "},"_":{"ha":1164,"x_min":-31,"x_max":1000,"o":"m 978 -67 q 997 -81 989 -69 q 1000 -97 1000 -87 q 997 -114 1000 -109 q 968 -129 987 -129 l -7 -128 q -29 -110 -23 -122 q -31 -97 -31 -106 q -21 -73 -31 -81 q -4 -67 -16 -70 l 978 -67 z "},"`":{"ha":437,"x_min":261,"x_max":419,"o":"m 359 1236 l 417 1179 q 419 1156 419 1170 l 412 1144 l 353 1088 q 339 1084 346 1084 q 323 1090 331 1084 l 323 1074 l 367 987 q 399 956 370 983 q 419 921 419 937 q 417 908 419 914 q 389 890 406 890 q 355 912 377 890 l 311 956 l 261 1059 l 261 1173 l 267 1184 l 327 1241 q 340 1244 331 1244 q 359 1236 352 1244 z "},"a":{"ha":1019,"x_min":116,"x_max":1002,"o":"m 540 708 q 593 682 557 700 q 648 657 629 664 l 659 644 q 700 524 672 603 l 751 697 q 773 710 757 707 q 801 698 786 710 q 824 708 810 708 q 855 679 855 708 l 848 645 l 749 296 l 710 139 l 710 60 l 741 31 l 813 31 l 901 122 l 946 213 q 968 224 952 224 q 1000 205 993 224 q 1002 195 1002 201 q 995 175 1002 188 q 987 158 989 163 l 947 79 l 843 -26 l 832 -31 l 672 -31 l 661 -26 l 604 32 q 600 54 600 40 l 600 89 q 553 23 585 67 l 444 -31 l 330 -31 l 221 23 l 167 81 l 116 185 l 116 348 l 169 502 l 271 654 l 282 660 l 434 710 l 540 708 m 606 607 l 528 647 l 443 647 l 361 606 l 274 475 l 226 336 l 224 154 l 265 73 l 345 31 l 428 31 l 512 73 l 598 204 l 647 342 l 648 474 l 606 607 z "},"b":{"ha":921,"x_min":163,"x_max":807,"o":"m 465 1031 l 466 1016 l 352 639 l 375 659 l 475 708 l 591 708 l 700 654 l 755 597 l 807 493 l 805 329 l 754 177 l 654 26 l 642 18 l 487 -31 l 378 -31 l 273 22 l 214 82 l 163 241 l 163 396 l 346 987 l 236 989 q 214 1006 219 991 q 211 1019 211 1012 q 216 1034 211 1025 q 236 1049 220 1043 q 449 1047 380 1049 q 465 1031 461 1043 m 656 607 l 576 647 l 490 647 l 409 607 l 318 516 l 274 386 l 273 204 l 317 70 l 395 31 l 477 31 l 560 72 l 648 204 l 697 340 l 697 525 l 656 607 z "},"c":{"ha":873,"x_min":116,"x_max":758,"o":"m 588 708 q 698 656 588 708 l 707 644 l 758 543 l 758 477 q 743 458 754 462 q 705 455 732 455 l 670 455 q 650 474 657 459 q 648 543 648 496 q 678 565 656 562 l 656 609 l 573 648 l 443 648 l 359 606 l 268 468 l 224 330 l 224 153 l 265 70 l 348 31 l 436 31 l 562 73 l 657 214 q 679 224 670 224 q 691 221 688 224 q 708 204 704 219 q 704 176 708 182 l 603 25 l 591 18 l 437 -31 l 330 -31 l 221 23 l 167 81 l 116 185 l 116 348 l 169 502 l 271 654 l 282 660 l 434 710 l 588 708 z "},"d":{"ha":1019,"x_min":116,"x_max":1002,"o":"m 952 1019 q 949 1002 952 1012 l 710 139 l 710 60 l 741 31 l 813 31 l 901 122 l 946 213 q 968 224 952 224 q 1000 205 993 224 q 1002 195 1002 201 q 995 175 1002 188 q 987 158 989 163 l 947 79 l 843 -26 l 832 -31 l 672 -31 l 661 -26 l 604 32 q 600 54 600 40 l 600 89 q 553 23 585 67 l 444 -31 l 330 -31 l 221 23 l 167 81 l 116 185 l 116 348 l 169 502 l 271 654 l 282 660 l 434 710 l 543 708 l 648 656 l 659 644 q 700 524 672 603 l 832 986 l 830 987 l 720 989 q 700 1008 704 991 q 697 1019 697 1013 q 707 1041 697 1034 l 717 1049 l 931 1049 q 952 1019 952 1046 m 606 607 l 528 647 l 443 647 l 361 606 l 274 475 l 226 336 l 224 154 l 265 73 l 345 31 l 428 31 l 512 73 l 598 204 l 647 342 l 648 474 l 606 607 z "},"e":{"ha":873,"x_min":114,"x_max":758,"o":"m 588 708 q 698 656 588 708 l 707 644 l 758 540 l 757 522 l 704 418 q 546 311 682 402 l 378 257 l 224 219 l 223 153 l 265 70 l 348 31 l 436 31 l 565 75 l 664 172 q 678 176 669 176 q 689 175 685 176 q 708 155 700 173 q 710 145 710 153 q 705 129 710 135 l 600 23 l 590 18 l 439 -31 l 330 -31 l 221 23 l 166 81 l 114 185 l 114 348 l 167 502 l 271 654 l 282 660 l 434 710 l 588 708 m 656 607 l 576 647 l 443 647 l 361 606 l 274 475 l 224 336 l 224 283 q 518 367 375 317 l 654 458 l 692 534 l 656 607 z "},"f":{"ha":727,"x_min":-129,"x_max":807,"o":"m 745 1044 l 802 984 l 807 969 l 807 930 q 801 903 807 914 l 741 845 q 727 842 732 842 q 717 843 720 842 q 650 908 705 852 q 647 931 647 917 q 700 987 664 949 l 642 987 l 557 899 l 512 808 q 488 710 503 774 l 689 708 q 707 691 701 704 q 703 660 707 670 q 672 648 692 648 l 471 648 l 449 549 l 356 138 l 314 -26 l 267 -166 l 219 -263 l 158 -320 l 54 -371 l -54 -371 l -67 -365 l -125 -305 l -129 -290 l -129 -251 q -119 -220 -129 -230 l -65 -167 q -41 -164 -59 -164 l -31 -170 l 28 -229 q 31 -254 31 -238 q -22 -309 13 -271 l 43 -309 l 123 -268 l 166 -183 l 219 37 l 349 647 l 348 648 l 186 648 q 163 679 163 657 q 166 695 163 686 q 186 710 170 704 l 365 710 l 411 843 l 461 940 l 519 997 q 626 1050 554 1015 l 735 1049 l 745 1044 z "},"g":{"ha":971,"x_min":16,"x_max":855,"o":"m 540 708 q 593 682 557 700 q 648 657 629 664 l 659 644 q 700 524 672 603 l 751 697 q 773 710 757 707 q 801 698 786 710 q 824 708 810 708 q 855 679 855 708 l 848 645 l 609 -161 l 507 -314 l 496 -321 l 342 -371 l 183 -370 l 79 -317 l 23 -263 l 18 -248 q 16 -227 18 -241 q 16 -208 16 -214 q 23 -176 16 -186 l 82 -119 q 107 -116 91 -116 l 117 -122 l 173 -180 q 176 -195 176 -183 q 175 -207 176 -204 q 117 -267 155 -226 l 201 -308 l 334 -308 l 415 -267 l 507 -131 l 557 28 q 446 -31 521 9 l 330 -31 l 221 23 l 167 81 l 116 185 l 116 348 l 169 502 l 271 654 l 282 660 l 434 710 l 540 708 m 606 607 l 528 647 l 443 647 l 361 606 l 274 475 l 226 336 l 224 154 l 265 73 l 345 31 l 428 31 l 512 73 l 598 204 l 647 342 l 648 474 l 606 607 z "},"h":{"ha":1019,"x_min":66,"x_max":1002,"o":"m 466 1030 l 466 1015 l 345 584 l 421 657 l 527 710 l 641 708 l 749 653 l 802 597 l 807 587 l 807 477 l 711 185 l 711 60 l 741 31 l 813 31 l 901 122 l 946 213 q 968 224 952 224 q 1000 205 993 224 q 1002 195 1002 201 q 995 175 1002 188 q 987 158 989 163 l 947 79 l 843 -26 l 832 -31 l 672 -31 l 661 -26 l 604 32 l 598 47 l 601 202 l 698 494 l 698 569 l 619 648 l 540 648 l 455 604 l 362 512 l 271 326 l 173 -15 q 148 -31 164 -31 q 122 -21 131 -31 q 100 -31 113 -31 q 73 -22 81 -31 q 66 4 66 -13 l 346 987 l 236 989 q 214 1006 219 991 q 213 1019 213 1009 q 216 1036 213 1030 q 236 1049 220 1043 q 446 1047 378 1049 q 466 1030 459 1046 z "},"i":{"ha":631,"x_min":18,"x_max":613,"o":"m 459 1040 l 513 984 q 516 969 516 975 q 515 959 516 962 q 450 893 496 936 q 434 890 441 890 q 422 893 428 890 l 361 956 q 358 969 358 961 q 362 986 358 977 l 421 1044 q 436 1050 427 1050 q 459 1040 449 1050 m 358 704 l 417 645 l 419 632 l 419 477 l 323 185 l 323 62 l 353 31 l 424 31 l 510 119 l 557 214 q 579 224 568 224 q 604 215 595 224 q 613 188 613 205 l 559 79 l 455 -28 l 441 -31 l 283 -31 l 273 -26 l 214 34 l 211 48 l 213 205 l 309 494 l 309 617 l 277 648 l 205 648 l 120 560 l 73 466 q 51 453 65 455 q 19 474 25 456 q 18 484 18 477 q 31 519 18 484 l 70 598 l 176 703 q 188 710 179 707 l 346 708 l 358 704 z "},"j":{"ha":631,"x_min":-129,"x_max":565,"o":"m 506 1041 l 560 986 q 565 968 565 968 q 563 961 565 964 l 557 950 l 500 893 q 485 890 488 890 q 466 896 472 890 l 409 955 q 405 969 405 961 q 408 984 405 975 q 472 1047 450 1030 q 484 1050 478 1050 q 506 1041 497 1050 m 406 704 l 463 644 l 468 631 l 465 474 l 267 -166 l 219 -263 l 160 -320 l 56 -371 l -54 -371 l -67 -365 l -125 -305 l -129 -290 l -129 -251 q -119 -220 -129 -230 l -65 -167 q -41 -164 -59 -164 l -31 -170 l 28 -229 q 31 -254 31 -238 q -22 -308 26 -258 l 35 -308 l 122 -221 l 167 -131 l 226 51 l 356 493 l 356 617 l 326 648 l 255 648 l 169 560 l 122 465 q 100 453 109 455 q 74 465 82 456 q 66 490 66 474 l 120 600 l 224 704 l 238 710 l 396 708 l 406 704 z "},"k":{"ha":971,"x_min":67,"x_max":857,"o":"m 466 1030 l 466 1015 l 298 419 l 334 419 l 419 463 l 615 657 l 722 710 l 766 710 q 796 703 788 710 l 852 645 l 855 635 q 855 616 855 628 q 857 597 857 603 q 851 563 857 576 l 791 506 q 774 502 783 502 q 764 505 770 502 q 701 568 747 519 q 697 581 697 573 q 700 594 697 587 q 749 647 704 601 l 733 648 l 648 604 l 453 409 q 409 387 439 402 q 465 353 430 380 l 560 66 l 595 31 l 625 31 l 707 73 l 804 216 q 824 224 813 224 q 836 221 833 224 q 855 194 855 214 q 852 180 855 183 l 747 23 l 638 -31 l 524 -31 l 513 -23 l 458 35 l 361 323 l 327 356 l 280 356 l 172 -18 q 148 -31 161 -31 q 122 -21 131 -31 q 100 -31 113 -31 q 73 -21 81 -31 q 67 4 67 -15 l 348 986 l 346 987 l 236 989 q 214 1006 221 991 q 213 1012 214 1008 q 213 1019 213 1016 q 216 1035 213 1027 q 236 1049 219 1043 q 446 1047 378 1049 q 466 1030 459 1046 z "},"l":{"ha":582,"x_min":114,"x_max":516,"o":"m 466 1030 l 466 1015 l 224 136 l 224 62 l 255 31 l 327 31 l 414 119 l 461 213 q 483 224 472 224 q 515 204 507 224 q 516 195 516 201 q 510 175 516 186 l 462 79 l 359 -26 l 343 -31 l 186 -31 l 173 -23 l 119 31 l 114 43 l 116 154 l 172 370 l 346 987 l 236 989 q 214 1006 219 991 q 213 1019 213 1009 q 216 1036 213 1030 q 236 1049 220 1043 q 446 1047 378 1049 q 466 1030 459 1046 z "},"m":{"ha":1602,"x_min":18,"x_max":1584,"o":"m 358 704 l 417 645 l 419 632 l 419 560 l 519 659 l 620 708 l 738 708 l 845 654 l 899 600 q 905 582 905 594 q 903 573 905 579 q 903 560 903 566 l 1005 659 l 1106 708 q 1162 708 1123 708 q 1219 710 1200 708 q 1273 681 1236 700 q 1329 654 1310 663 l 1383 600 l 1389 590 l 1387 475 l 1292 183 l 1292 62 l 1324 31 l 1395 31 l 1481 119 l 1528 214 q 1550 224 1536 221 q 1575 216 1566 224 q 1584 188 1584 208 l 1530 79 l 1421 -29 l 1409 -31 l 1254 -31 l 1242 -26 l 1185 32 l 1182 44 l 1182 201 l 1279 494 l 1279 569 l 1200 648 l 1122 648 l 1035 603 l 946 512 l 864 346 l 754 -18 q 730 -31 745 -31 q 704 -21 714 -31 q 673 -31 694 -31 q 648 -1 648 -31 q 653 23 648 7 q 660 43 659 38 l 795 494 l 795 569 l 716 648 l 637 648 l 550 604 l 459 512 l 367 326 l 268 -18 q 245 -31 260 -31 q 217 -21 232 -31 q 197 -31 211 -31 q 171 -23 179 -31 q 163 -3 163 -15 q 167 15 163 3 q 172 32 172 28 l 271 381 l 309 543 l 309 617 l 277 648 l 205 648 l 120 560 l 73 466 q 51 453 65 455 q 19 474 25 456 q 18 484 18 477 q 31 519 18 484 l 70 598 l 176 703 q 188 710 179 707 l 346 710 l 358 704 z "},"n":{"ha":1116,"x_min":18,"x_max":1097,"o":"m 358 704 l 417 645 l 419 632 l 419 560 l 519 659 l 620 708 l 738 708 l 845 654 l 899 600 l 903 590 l 903 475 l 807 185 l 807 62 l 839 31 l 909 31 l 996 119 l 1043 214 q 1065 224 1053 224 q 1097 204 1090 224 q 1087 164 1097 185 q 1071 131 1071 132 l 1044 78 l 936 -29 l 921 -31 l 766 -29 l 755 -23 l 700 34 l 697 45 l 697 201 l 793 494 l 793 569 l 716 648 l 637 648 l 550 604 l 459 512 l 367 326 l 268 -18 q 245 -31 260 -31 q 217 -21 232 -31 q 197 -31 210 -31 q 171 -23 179 -31 q 163 -3 163 -15 q 167 15 163 3 q 172 32 172 28 l 271 381 l 309 543 l 309 617 l 277 648 l 205 648 l 120 560 l 73 466 q 51 453 65 455 q 19 474 25 456 q 18 484 18 477 q 31 519 18 484 l 70 598 l 176 703 q 188 710 179 707 l 346 708 l 358 704 z "},"o":{"ha":873,"x_min":116,"x_max":758,"o":"m 540 708 q 593 682 557 700 q 648 656 629 664 l 707 597 l 758 493 l 758 331 l 705 176 l 603 25 l 591 18 l 439 -31 l 330 -31 l 221 23 l 167 81 l 116 185 l 116 348 l 169 502 l 271 654 l 282 660 l 434 710 l 540 708 m 609 606 l 528 647 l 443 647 l 361 606 l 274 475 l 226 336 l 224 154 l 265 73 l 345 31 l 428 31 l 512 72 l 598 204 l 647 342 l 648 524 l 609 606 z "},"p":{"ha":1019,"x_min":-81,"x_max":903,"o":"m 358 704 l 415 645 q 419 623 419 637 l 419 588 q 465 654 434 610 l 573 708 l 689 708 l 795 654 l 854 598 l 903 494 l 903 330 l 852 177 l 748 25 l 736 18 l 584 -31 l 475 -31 l 370 23 l 359 34 q 318 154 336 104 l 186 -308 l 298 -309 q 320 -329 315 -312 q 321 -339 321 -331 q 311 -364 321 -355 l 301 -370 l -53 -371 q -81 -342 -81 -371 q -71 -319 -81 -330 q -45 -308 -62 -308 l 73 -308 l 267 367 l 308 538 l 308 617 l 277 648 l 205 648 l 120 560 l 73 466 q 51 453 65 455 q 19 474 25 456 q 18 484 18 477 q 31 519 18 484 l 70 598 l 176 703 q 188 710 179 707 l 346 708 l 358 704 m 754 606 l 673 647 l 588 647 l 507 606 l 418 474 l 371 337 l 371 202 l 414 72 l 490 31 l 575 31 l 659 72 l 745 204 l 793 342 l 793 524 l 754 606 z "},"q":{"ha":971,"x_min":116,"x_max":855,"o":"m 540 708 q 593 682 557 700 q 648 657 629 664 l 659 644 q 700 524 672 603 l 751 697 q 773 710 757 707 q 801 698 786 710 q 824 708 810 708 q 855 679 855 708 l 848 645 l 575 -308 l 685 -309 q 705 -326 700 -311 q 710 -340 710 -331 q 702 -362 710 -352 q 660 -371 694 -371 l 330 -370 q 308 -345 314 -365 q 317 -320 308 -331 q 353 -308 326 -308 l 461 -308 l 557 28 q 446 -31 521 9 l 330 -31 l 221 23 l 167 81 l 116 185 l 116 348 l 169 502 l 271 654 l 282 660 l 434 710 l 540 708 m 606 607 l 528 647 l 443 647 l 361 606 l 274 475 l 226 336 l 224 154 l 265 73 l 345 31 l 428 31 l 512 73 l 598 204 l 647 342 l 648 474 l 606 607 z "},"r":{"ha":826,"x_min":18,"x_max":808,"o":"m 358 704 l 417 645 l 419 632 l 419 560 l 519 659 l 620 708 l 738 708 l 747 704 l 804 644 l 808 631 l 808 590 q 802 563 808 575 l 741 505 q 733 503 739 505 q 717 503 726 503 q 651 568 698 518 q 648 593 648 576 q 701 647 653 598 l 637 648 l 550 604 l 459 512 l 367 326 l 268 -18 q 245 -31 260 -31 q 217 -21 232 -31 q 197 -31 211 -31 q 171 -23 179 -31 q 163 -3 163 -15 q 167 15 163 3 q 172 32 172 28 l 271 381 l 309 543 l 309 617 l 277 648 l 205 648 l 120 560 l 73 466 q 51 453 65 455 q 19 474 25 456 q 18 484 18 477 q 31 519 18 484 l 70 598 l 176 703 q 188 710 179 707 l 346 708 l 358 704 z "},"s":{"ha":826,"x_min":65,"x_max":760,"o":"m 694 659 q 722 630 703 650 q 752 601 742 610 q 760 581 757 594 q 758 566 758 576 l 758 540 q 736 503 758 510 q 714 502 730 503 q 691 502 698 502 q 651 519 661 502 q 648 554 648 529 l 648 591 q 657 604 650 597 l 525 648 l 389 647 l 260 604 l 224 569 l 224 547 l 264 507 l 603 314 l 659 257 l 661 246 l 661 88 l 656 78 l 595 21 l 439 -31 l 282 -31 l 131 21 l 70 79 l 66 91 q 66 97 66 92 q 67 103 67 100 q 66 120 67 109 q 65 138 65 132 q 87 175 65 167 q 109 176 92 175 q 132 177 125 177 q 172 161 161 177 q 177 122 177 145 q 173 84 177 101 q 167 73 172 79 l 299 31 l 436 31 l 565 75 l 600 110 l 600 182 l 560 220 l 224 411 l 169 466 l 163 477 l 163 587 l 169 601 l 227 657 q 387 710 280 675 l 543 708 l 694 659 z "},"t":{"ha":679,"x_min":114,"x_max":613,"o":"m 461 1038 q 484 1049 469 1049 q 499 1047 494 1049 q 516 1019 516 1034 l 507 986 l 428 710 l 591 708 q 609 694 604 703 q 613 676 613 685 q 611 664 613 672 q 594 650 609 657 q 503 648 565 648 l 412 648 l 312 302 l 273 141 l 273 62 l 305 31 l 375 31 l 462 119 l 510 214 q 531 224 519 223 q 556 216 547 224 q 565 188 565 208 l 510 79 l 402 -29 l 390 -31 l 235 -31 l 223 -26 l 166 32 l 163 44 l 163 153 l 219 370 l 298 647 l 139 648 q 119 663 126 648 q 114 681 114 672 q 119 693 114 683 q 132 707 123 703 l 147 710 l 315 710 l 411 1037 q 434 1050 419 1047 q 461 1038 446 1050 z "},"u":{"ha":1116,"x_min":18,"x_max":1097,"o":"m 358 704 l 417 645 l 419 632 l 419 477 l 323 185 l 323 109 l 400 31 l 480 31 l 565 75 l 656 167 l 748 352 l 846 692 q 871 710 854 708 q 898 698 889 707 q 920 710 901 703 q 946 700 940 707 q 952 673 952 692 l 842 285 l 807 136 l 807 62 l 839 31 l 909 31 l 996 119 l 1043 214 q 1065 224 1053 224 q 1097 204 1090 224 q 1087 164 1097 185 q 1071 131 1071 132 l 1044 78 l 936 -29 l 921 -31 l 766 -29 l 755 -23 l 700 34 q 697 119 697 57 l 598 22 l 491 -31 l 378 -29 l 274 23 l 217 78 l 213 91 l 213 201 l 309 496 l 309 617 l 277 648 l 205 648 l 120 560 l 73 466 q 51 453 65 455 q 19 474 25 456 q 18 484 18 477 q 31 519 18 484 l 70 598 l 176 703 q 188 710 179 707 l 346 710 l 358 704 z "},"v":{"ha":971,"x_min":18,"x_max":855,"o":"m 358 704 l 417 645 l 419 632 l 419 477 l 323 185 l 323 109 l 400 31 l 436 31 l 565 75 l 659 170 l 748 305 l 793 490 l 793 575 l 747 669 q 745 673 747 670 q 745 679 745 678 q 756 702 745 694 q 789 710 767 710 q 811 708 792 710 q 836 708 826 707 q 854 691 849 700 l 855 666 l 855 478 l 805 279 l 703 123 l 594 19 q 503 -12 573 15 q 408 -32 446 -32 q 393 -31 402 -32 q 378 -31 383 -31 l 274 23 l 217 78 l 213 91 l 213 201 l 309 496 l 309 617 l 277 648 l 205 648 l 120 560 l 73 466 q 51 453 65 455 q 19 474 25 456 q 18 484 18 477 q 31 519 18 484 l 70 598 l 176 703 q 188 710 179 707 l 346 710 l 358 704 z "},"w":{"ha":1406,"x_min":18,"x_max":1292,"o":"m 358 704 l 417 645 l 419 632 l 419 477 l 323 185 l 323 109 l 400 31 l 480 31 l 565 75 l 656 167 l 700 254 l 796 694 q 830 708 805 708 q 849 698 840 705 q 873 708 859 708 q 887 706 879 708 q 902 692 895 704 q 901 661 902 669 l 807 235 l 807 110 l 886 31 l 964 31 l 1050 75 l 1141 167 l 1184 255 l 1230 440 l 1230 576 l 1184 670 q 1189 698 1184 692 q 1223 710 1201 710 q 1244 708 1228 710 q 1272 708 1260 708 q 1289 694 1282 707 l 1292 679 l 1291 428 l 1241 229 l 1191 128 l 1081 21 l 977 -31 l 864 -29 l 758 23 l 703 78 q 697 100 697 88 l 697 119 l 598 22 l 491 -31 l 378 -29 l 274 23 l 217 78 l 213 91 l 213 201 l 309 496 l 309 617 l 277 648 l 205 648 l 120 560 l 73 466 q 51 453 65 455 q 19 474 25 456 q 18 484 18 477 q 31 519 18 484 l 70 598 l 176 703 q 188 710 179 707 l 346 710 l 358 704 z "},"x":{"ha":971,"x_min":66,"x_max":905,"o":"m 491 710 q 513 694 509 704 l 565 587 l 565 560 l 664 659 l 767 708 q 789 708 774 708 q 813 710 804 710 q 846 703 833 710 l 901 647 l 905 635 l 905 591 q 898 562 905 572 l 839 506 q 824 502 832 502 q 812 506 818 502 q 749 566 805 510 q 745 582 745 575 q 766 616 745 597 q 798 647 793 641 l 782 648 l 695 603 l 606 512 l 562 419 l 518 241 l 518 103 l 551 31 l 625 31 l 707 73 l 804 216 q 824 224 813 224 q 836 221 833 224 q 855 205 845 219 q 855 199 855 204 q 857 194 857 197 q 854 180 857 186 l 747 23 l 638 -31 l 475 -29 q 458 -13 462 -25 l 406 88 l 405 119 l 305 21 l 204 -29 q 141 -31 182 -29 l 126 -26 l 70 31 l 66 47 l 66 84 q 72 116 66 103 l 129 172 q 145 176 135 176 q 157 175 153 176 q 221 111 191 148 q 226 95 226 98 q 225 88 226 89 q 173 31 224 87 l 188 31 l 274 75 l 365 167 l 409 255 l 455 441 l 455 575 l 418 647 l 345 648 l 264 607 l 166 461 q 145 453 151 453 q 117 474 125 456 q 116 484 116 477 q 122 505 116 496 l 221 653 q 336 710 258 672 l 491 710 z "},"y":{"ha":1019,"x_min":18,"x_max":952,"o":"m 358 704 l 417 645 l 419 632 l 419 477 l 323 185 l 323 109 l 400 31 l 480 31 l 565 75 l 656 167 l 748 352 l 846 692 q 871 710 854 708 q 898 698 889 707 q 920 710 901 703 q 946 700 940 707 q 952 673 952 692 l 752 -28 l 705 -161 l 603 -315 l 591 -323 l 439 -371 l 282 -370 l 175 -315 l 120 -263 l 114 -251 q 113 -223 114 -238 q 113 -205 113 -208 q 123 -173 113 -185 l 179 -119 q 195 -114 192 -114 q 199 -114 197 -114 q 204 -116 202 -116 l 213 -122 l 271 -180 q 274 -194 274 -185 q 251 -232 274 -211 q 214 -267 219 -261 l 299 -308 l 430 -308 l 513 -265 l 604 -129 l 659 38 l 675 95 l 598 22 l 491 -31 l 378 -29 l 274 23 l 217 78 l 213 91 l 213 201 l 309 496 l 309 617 l 277 648 l 205 648 l 120 560 l 73 466 q 51 453 65 455 q 19 474 25 456 q 18 484 18 477 q 31 519 18 484 l 70 598 l 176 703 q 188 710 179 707 l 346 710 l 358 704 z "},"z":{"ha":971,"x_min":116,"x_max":857,"o":"m 686 613 l 757 613 l 799 697 q 826 710 808 710 q 849 698 837 708 q 857 679 857 691 q 855 675 857 678 q 855 670 855 672 l 799 560 l 686 452 l 308 166 l 270 128 l 299 126 l 493 78 l 623 78 l 705 122 l 752 214 q 773 224 763 224 q 801 213 791 224 q 808 197 808 207 q 807 191 808 194 q 807 185 807 186 l 752 76 l 645 -29 l 634 -31 l 478 -31 l 465 -25 l 283 65 l 213 65 l 170 -19 q 145 -31 161 -31 q 116 -10 123 -31 q 126 29 116 9 q 142 62 141 59 l 170 117 l 280 224 l 663 512 l 701 550 l 672 551 l 477 600 l 346 600 l 265 559 l 219 466 q 197 453 210 455 q 164 475 170 456 q 163 480 164 477 q 163 484 163 483 q 170 505 163 493 l 217 601 l 326 705 l 334 710 l 491 708 l 686 613 z "},"{":{"ha":679,"x_min":66,"x_max":710,"o":"m 707 1225 q 710 1211 710 1219 q 707 1198 710 1207 l 695 1186 l 557 1140 l 516 1011 l 516 923 l 565 779 l 563 670 l 509 563 l 450 506 l 373 475 q 342 453 364 465 q 331 455 339 455 q 302 447 318 455 q 271 433 286 440 q 406 364 315 409 l 461 308 l 466 296 l 466 186 l 415 31 l 403 21 l 257 -78 l 217 -120 l 177 -202 l 177 -273 l 261 -315 q 274 -342 274 -329 q 257 -368 271 -359 q 245 -371 251 -371 q 226 -367 235 -371 l 123 -314 q 67 -204 104 -277 l 66 -141 l 72 -126 l 175 23 l 227 75 l 317 120 q 342 169 320 129 q 358 220 358 198 q 356 236 358 230 l 312 321 l 270 365 l 176 412 q 163 437 163 421 q 172 458 166 449 l 183 466 l 337 527 l 414 604 q 439 654 417 615 q 456 707 456 683 q 453 725 456 716 l 405 871 l 406 1027 l 461 1135 l 519 1192 q 679 1244 625 1228 q 707 1225 700 1244 z "},"|":{"ha":485,"x_min":66,"x_max":516,"o":"m 513 1226 l 516 1211 l 123 -356 q 101 -371 117 -368 q 76 -363 87 -371 q 66 -337 66 -355 l 459 1229 q 480 1244 463 1241 q 513 1226 506 1244 z "},"}":{"ha":776,"x_min":66,"x_max":710,"o":"m 651 1188 l 659 1179 l 710 1074 l 710 1033 q 704 999 710 1012 l 606 852 q 532 803 581 835 q 461 755 484 771 l 419 670 l 419 638 l 463 550 l 507 509 l 601 461 q 613 433 613 453 q 593 406 613 415 l 437 345 l 362 270 q 336 219 359 258 q 320 166 320 189 q 321 147 320 151 l 370 1 l 370 -153 q 315 -261 351 -188 l 260 -317 l 249 -323 l 101 -371 q 79 -367 88 -371 q 66 -340 66 -353 q 75 -317 66 -327 l 89 -309 l 217 -268 l 260 -141 l 258 -51 l 213 92 l 213 201 l 267 311 l 324 367 l 403 397 q 433 419 412 408 l 450 417 l 506 439 l 368 509 l 314 563 l 308 575 l 308 688 l 361 840 l 371 852 l 519 950 l 559 991 l 600 1075 l 600 1144 l 515 1189 q 502 1210 509 1192 q 513 1236 505 1229 q 534 1244 522 1244 q 546 1241 541 1244 l 651 1188 z "},"~":{"ha":1261,"x_min":-31,"x_max":902,"o":"m 361 556 l 557 411 l 639 370 l 720 370 l 802 412 l 842 493 l 843 590 q 858 610 846 603 q 874 612 862 612 q 887 610 884 612 q 902 591 899 603 l 902 478 l 852 324 l 837 311 l 736 261 l 622 261 l 516 314 l 317 462 l 235 503 l 153 503 l 70 461 l 31 380 l 31 285 q 0 260 22 260 q -31 292 -31 260 l -29 397 l 21 549 l 35 562 q 141 613 69 579 l 251 612 l 361 556 z "},"":{"ha":1019,"x_min":0,"x_max":0,"o":""},"":{"ha":534,"x_min":66,"x_max":468,"o":"m 408 1041 l 465 984 q 468 969 468 975 q 463 955 468 961 l 402 893 q 389 890 393 890 q 374 893 383 890 q 311 956 342 923 q 309 964 311 958 q 309 980 309 971 l 315 990 l 373 1046 q 389 1050 378 1050 q 408 1041 400 1050 m 323 631 l 224 47 q 210 21 224 31 q 179 -12 207 18 q 145 -32 161 -32 q 139 -31 142 -32 q 133 -31 135 -31 q 69 34 133 -31 l 66 51 l 264 647 q 287 661 274 660 q 323 631 323 661 z "},"":{"ha":873,"x_min":114,"x_max":760,"o":"m 757 836 q 760 826 760 830 q 755 810 760 817 l 670 670 q 707 644 685 666 l 758 543 l 758 477 q 743 458 754 462 q 705 455 732 455 l 670 455 q 650 474 657 459 q 648 543 648 496 q 678 565 656 562 q 662 596 670 579 q 639 615 654 613 l 635 612 l 302 54 q 346 31 318 41 l 436 31 l 562 73 l 657 214 q 679 224 670 224 q 691 221 688 224 q 708 204 704 219 q 704 176 708 182 l 603 25 l 591 18 l 437 -31 l 330 -31 l 271 0 l 265 -6 l 166 -170 q 145 -177 155 -177 q 114 -148 114 -177 q 122 -123 114 -135 l 216 31 l 167 81 l 116 185 l 116 348 l 169 502 l 271 654 l 282 660 l 434 710 l 591 708 l 613 697 q 704 845 644 745 q 723 855 710 855 q 757 836 748 855 m 582 644 l 576 647 l 443 647 l 361 606 l 274 475 l 226 336 l 224 153 l 254 95 l 582 644 z "},"":{"ha":921,"x_min":18,"x_max":808,"o":"m 747 996 l 755 984 l 807 881 q 807 858 807 874 q 808 833 808 842 q 786 795 808 802 l 717 795 q 700 813 705 799 q 697 846 697 833 q 697 862 697 851 q 698 880 698 874 q 713 901 701 895 l 726 905 l 704 947 q 656 972 695 950 q 604 989 626 989 q 588 987 594 989 l 500 943 l 466 908 l 422 565 l 543 563 q 562 547 554 560 q 565 534 565 538 q 554 512 565 518 l 553 509 q 565 488 562 503 q 557 463 565 472 q 532 456 549 453 q 525 455 531 456 q 510 455 518 455 l 392 455 l 287 176 l 397 176 l 408 172 l 499 79 l 667 79 l 763 173 q 776 176 769 176 q 796 168 788 176 q 808 148 805 160 l 804 131 l 703 -22 q 679 -31 694 -31 l 524 -29 l 513 -23 l 422 66 l 207 66 l 111 -29 q 97 -31 107 -31 q 87 -29 91 -31 q 21 32 69 -16 q 18 47 18 44 q 21 62 18 53 q 82 123 43 88 q 95 128 88 128 q 110 123 103 128 l 136 101 l 169 164 l 277 453 l 183 456 q 166 472 170 462 q 163 506 163 496 q 163 524 163 512 q 164 541 164 535 q 180 562 170 557 l 191 563 l 312 563 l 359 886 l 365 895 l 471 997 l 572 1049 l 641 1049 l 747 996 z "},"":{"ha":971,"x_min":114,"x_max":1097,"o":"m 446 1049 q 466 1018 466 1046 q 463 1005 466 1009 q 443 989 456 991 l 337 989 l 340 977 l 496 588 l 895 987 l 769 989 q 748 1005 755 991 q 745 1021 745 1013 q 748 1033 745 1028 q 795 1049 754 1049 l 1074 1049 q 1097 1021 1097 1044 q 1093 999 1097 1008 q 1065 989 1084 989 l 983 989 l 560 565 l 788 563 q 804 547 801 557 q 807 534 807 537 q 802 518 807 522 q 782 503 793 503 l 509 502 l 499 468 l 738 466 q 757 447 752 459 q 751 415 757 424 q 723 406 745 406 l 483 406 l 380 31 l 491 31 q 512 15 507 25 q 516 -1 516 6 q 512 -16 516 -9 q 491 -31 506 -28 l 136 -31 q 114 -4 117 -26 q 132 28 114 19 l 148 31 l 267 31 l 368 405 l 135 406 q 120 421 125 411 q 114 437 114 431 q 122 458 114 450 q 150 466 131 466 l 386 466 l 396 502 l 183 503 q 166 519 173 505 q 163 532 163 524 q 171 555 163 547 q 198 563 179 563 l 390 563 l 389 569 l 221 986 q 180 987 208 987 q 139 988 153 987 q 119 1003 126 989 q 114 1021 114 1012 q 118 1033 114 1024 q 132 1047 122 1041 q 242 1050 173 1050 l 446 1049 z "},"":{"ha":1019,"x_min":116,"x_max":903,"o":"m 795 1189 l 854 1131 l 903 1028 l 903 961 l 899 950 l 839 893 q 824 890 830 890 q 805 896 813 890 l 749 955 q 745 969 745 961 q 749 984 745 977 q 795 1033 764 1000 l 795 1060 l 752 1142 l 672 1182 l 584 1182 l 453 1137 l 411 1094 q 386 1044 408 1085 q 370 990 370 1013 q 371 975 370 980 l 414 893 l 799 653 l 854 598 l 903 494 l 903 378 l 849 271 l 793 214 l 686 163 l 675 163 l 711 51 l 711 10 q 704 -21 711 -10 l 656 -116 l 598 -173 l 439 -226 l 330 -224 l 223 -170 l 167 -111 l 116 -10 l 116 59 l 122 67 l 179 123 q 195 128 185 128 q 213 122 207 128 l 271 63 q 274 48 274 59 q 271 34 274 38 q 224 -15 255 18 l 224 -43 l 265 -123 l 348 -163 l 436 -163 l 566 -119 l 609 -75 l 650 9 l 650 41 l 607 123 l 221 367 l 167 421 l 116 524 l 116 639 l 170 747 l 230 805 l 334 855 l 345 855 l 309 968 l 311 1030 l 362 1134 l 421 1191 q 582 1244 474 1210 l 689 1242 l 795 1189 m 757 557 l 378 793 l 346 793 l 264 752 q 211 692 233 732 q 177 625 195 659 q 176 617 177 622 q 176 610 176 612 q 192 556 176 587 q 219 507 216 518 l 263 461 l 639 224 l 670 224 l 754 267 q 807 326 785 287 q 842 395 824 361 q 843 409 843 399 q 827 462 843 433 q 801 512 804 506 l 757 557 z "},"":{"ha":606,"x_min":163,"x_max":566,"o":"m 455 1021 q 469 996 463 1011 q 480 1029 474 1012 q 502 1049 485 1046 q 515 1047 506 1047 q 524 1047 518 1047 q 534 1049 529 1049 q 560 1034 553 1049 q 563 1009 563 1025 q 522 889 543 949 q 491 764 500 818 l 497 760 q 534 783 521 783 q 546 780 541 783 q 565 749 566 773 q 550 725 565 738 q 529 703 532 707 q 540 678 540 694 q 521 650 540 657 l 496 648 l 186 648 q 166 664 170 654 q 163 679 163 673 q 186 710 163 701 l 280 710 q 247 729 268 716 q 212 769 226 742 q 186 820 198 795 l 188 881 l 216 962 l 258 1018 q 336 1050 283 1028 l 397 1049 l 455 1021 m 411 972 l 383 987 l 348 987 q 320 965 333 981 q 296 934 308 949 l 274 871 l 273 808 l 290 776 l 323 758 l 355 758 l 389 774 l 408 814 q 421 842 417 823 q 428 874 427 870 q 430 892 430 879 q 411 972 430 915 m 434 710 q 422 720 431 720 q 410 715 418 720 q 399 710 402 710 l 434 710 z "},"":{"ha":873,"x_min":114,"x_max":855,"o":"m 610 692 q 612 678 612 688 q 609 663 612 667 l 588 644 l 191 336 l 465 12 q 468 0 468 3 q 437 -31 468 -31 q 414 -22 421 -31 l 117 327 q 114 339 114 336 q 117 352 114 343 l 123 362 l 569 707 q 581 710 578 710 q 610 692 600 710 m 852 692 q 855 679 855 688 q 848 659 855 666 l 433 336 l 707 12 q 710 0 710 6 q 705 -16 710 -9 q 682 -31 700 -28 q 659 -23 667 -31 l 359 327 q 356 339 356 333 q 359 351 356 342 l 365 361 l 813 707 q 824 710 817 710 q 852 692 845 710 z "},"":{"ha":727,"x_min":163,"x_max":565,"o":"m 458 1041 l 560 937 l 565 923 l 563 815 l 510 710 l 499 700 l 393 648 l 283 648 l 273 653 l 167 761 l 163 770 l 163 880 l 219 990 l 230 999 q 282 1023 248 1006 q 334 1049 317 1040 l 447 1047 l 458 1041 m 455 914 l 418 987 l 352 987 l 318 952 l 273 867 l 273 783 l 309 710 l 375 710 l 409 744 l 455 832 l 455 914 z "},"":{"ha":1311,"x_min":18,"x_max":1098,"o":"m 758 1015 l 647 613 l 648 613 l 1075 612 q 1098 581 1098 607 q 1091 562 1098 568 q 1065 551 1082 551 l 631 551 l 512 129 q 488 114 503 114 q 465 122 475 114 q 455 144 455 131 q 459 164 455 155 l 566 550 l 565 551 l 186 551 q 163 584 163 556 q 168 601 163 591 q 194 613 173 610 l 582 613 l 701 1033 q 720 1049 707 1046 q 758 1015 758 1049 m 931 78 q 949 62 946 72 q 952 48 952 59 q 949 31 952 43 q 928 18 940 19 l 40 18 q 22 34 26 23 q 18 48 18 44 q 43 78 18 73 l 931 78 z "},"":{"ha":1164,"x_min":-31,"x_max":1147,"o":"m 406 704 l 463 644 l 468 631 l 465 474 l 370 172 l 370 109 l 449 31 l 528 31 l 613 75 l 704 166 l 796 352 l 895 694 q 912 708 898 703 q 946 698 936 708 q 968 710 956 708 q 1000 689 993 710 q 994 650 1000 672 q 984 616 986 620 l 893 296 l 855 138 l 855 62 l 887 31 l 958 31 l 1044 119 l 1093 214 q 1113 224 1103 224 q 1140 213 1129 224 q 1147 195 1147 207 q 1145 185 1147 188 l 1091 76 l 984 -29 l 974 -31 l 817 -31 l 807 -26 l 749 31 l 745 47 l 745 119 l 645 21 l 543 -31 l 427 -31 l 326 21 l 323 18 l 221 -305 q 161 -367 205 -327 l 147 -371 l 40 -371 l 29 -365 l -28 -305 q -31 -293 -31 -302 q -25 -274 -31 -280 q 1 -261 -13 -261 l 13 -264 q 40 -289 21 -268 q 73 -309 59 -309 q 85 -308 81 -309 l 119 -276 l 356 493 l 356 617 l 326 648 l 255 648 l 169 560 l 122 465 q 100 453 109 455 q 74 465 82 456 q 66 490 66 474 l 120 600 l 224 704 l 238 710 l 396 710 l 406 704 z "},"":{"ha":631,"x_min":163,"x_max":516,"o":"m 456 1019 q 490 980 477 1005 q 516 931 503 955 l 516 865 l 488 786 l 444 727 q 403 710 430 722 l 471 708 q 488 694 484 705 q 491 679 491 689 q 485 660 491 666 q 458 648 477 648 l 186 648 q 166 664 170 654 q 163 679 163 673 q 186 710 163 701 l 280 710 q 247 729 268 716 q 212 769 226 742 q 186 820 198 795 l 188 881 l 216 962 l 258 1018 q 336 1050 283 1028 l 397 1049 l 456 1019 m 414 971 l 383 987 l 348 987 q 320 965 333 981 q 296 934 308 949 l 274 871 l 273 808 l 290 776 l 323 758 l 353 758 q 383 781 370 764 q 408 814 396 798 l 428 874 l 430 939 l 414 971 z "},"":{"ha":727,"x_min":18,"x_max":760,"o":"m 213 704 l 513 353 q 516 330 516 345 l 509 318 l 62 -29 q 48 -31 57 -31 q 28 -23 34 -31 q 18 3 18 -13 q 43 32 18 16 l 441 343 l 166 667 q 163 681 163 673 q 166 691 163 683 q 191 710 173 707 q 213 704 202 710 m 458 703 l 755 353 q 760 340 760 348 q 757 326 760 334 l 744 311 l 301 -31 q 276 -28 280 -31 q 260 -3 263 -19 q 268 21 260 9 l 683 343 l 408 667 q 406 679 406 672 q 411 694 406 685 q 433 710 417 704 q 458 703 449 710 z "},"":{"ha":1213,"x_min":114,"x_max":1295,"o":"m 1292 1223 q 1291 1201 1295 1208 l 1185 1065 l 164 -219 q 139 -226 154 -226 q 117 -205 123 -221 q 114 -195 114 -199 q 120 -179 114 -186 l 1242 1238 q 1261 1244 1266 1244 q 1272 1242 1269 1244 q 1292 1223 1283 1238 m 707 1178 q 709 1173 707 1178 q 711 1162 711 1169 q 708 1151 711 1157 l 462 468 q 443 455 456 458 q 412 465 422 455 q 389 453 403 456 q 361 469 368 456 q 358 484 358 478 q 359 494 358 490 l 527 955 q 395 890 505 945 q 370 895 378 890 q 358 921 358 909 q 368 945 358 937 q 390 959 378 952 l 518 1046 l 664 1192 q 678 1195 673 1195 q 689 1194 685 1195 q 707 1178 703 1186 m 1194 546 l 1197 531 l 1068 81 l 1068 79 q 1096 63 1087 79 q 1098 47 1098 54 q 1091 25 1098 32 q 1050 18 1084 18 l 997 -163 q 974 -177 989 -175 q 946 -166 956 -177 q 924 -177 939 -175 q 900 -166 908 -177 q 892 -147 892 -154 q 893 -136 892 -139 l 940 16 l 672 18 q 652 32 656 23 q 648 48 648 41 q 651 60 648 51 l 656 67 l 1151 562 q 1163 565 1156 565 q 1194 546 1184 565 m 755 79 l 959 79 l 1050 373 l 755 79 z "},"":{"ha":1358,"x_min":114,"x_max":1295,"o":"m 1291 1223 q 1291 1201 1295 1208 l 1184 1065 l 164 -219 q 139 -226 154 -226 q 117 -205 123 -221 q 114 -195 114 -199 q 120 -179 114 -186 l 1242 1238 q 1261 1244 1266 1244 q 1272 1242 1269 1244 q 1291 1223 1280 1239 m 710 1162 q 707 1151 710 1154 l 462 468 q 443 455 456 458 q 412 465 422 455 q 389 453 403 456 q 361 469 368 456 q 358 484 358 478 q 359 494 358 490 l 527 955 q 395 890 505 945 q 370 895 378 890 q 358 921 358 909 q 368 945 358 937 q 390 959 378 952 l 518 1046 l 664 1192 q 678 1195 673 1195 q 689 1194 685 1195 q 710 1162 710 1184 m 1228 513 l 1241 500 l 1292 396 l 1291 329 l 1236 221 l 1179 166 l 923 63 l 842 22 l 802 -18 l 881 -19 l 1028 -67 l 1103 -67 l 1198 28 q 1205 29 1200 28 q 1213 31 1210 31 q 1222 29 1220 31 q 1242 10 1233 28 q 1245 0 1245 4 q 1241 -16 1245 -10 l 1135 -172 l 1120 -177 l 1011 -177 q 864 -81 962 -145 l 789 -81 l 694 -175 q 681 -177 691 -177 q 670 -176 673 -177 q 648 -148 648 -169 q 651 -132 648 -141 l 755 23 l 811 76 l 1012 177 l 1141 264 q 1166 314 1144 274 q 1184 367 1184 343 q 1182 374 1184 368 q 1182 381 1182 378 l 1141 462 l 1059 502 l 977 502 l 889 458 q 846 411 873 443 l 901 355 q 905 339 905 348 q 902 329 905 334 q 839 263 884 305 q 830 261 837 263 q 815 261 823 261 l 805 267 l 749 324 q 745 340 745 330 q 747 351 745 348 l 801 456 l 858 513 l 961 563 l 1076 563 l 1228 513 z "},"":{"ha":1019,"x_min":213,"x_max":905,"o":"m 799 1040 l 852 984 q 855 969 855 980 q 854 959 855 962 q 791 893 845 947 q 774 890 782 890 q 761 893 767 890 l 701 956 q 697 971 697 962 q 703 989 697 981 l 763 1047 q 776 1050 769 1050 q 799 1040 789 1050 m 703 701 l 754 647 l 760 634 l 758 575 l 754 563 l 695 506 l 406 362 l 364 317 l 323 235 l 323 153 l 362 72 l 444 31 l 631 31 l 760 75 l 802 119 l 823 161 q 801 175 813 163 q 780 194 783 192 q 758 217 769 205 q 745 241 747 229 l 749 257 l 811 318 q 824 321 820 321 q 864 296 842 321 q 899 260 893 264 l 905 246 l 903 185 l 849 78 l 792 22 l 634 -31 l 427 -31 l 276 21 l 264 32 l 213 136 l 213 248 l 216 258 l 267 358 l 324 415 l 483 469 l 661 559 l 697 595 l 697 617 l 666 648 l 575 648 q 553 666 560 651 q 551 679 551 670 q 554 696 551 689 q 575 710 557 703 l 675 710 q 703 701 689 710 z "},"":{"ha":971,"x_min":-129,"x_max":807,"o":"m 697 1142 q 708 1107 708 1132 q 692 1087 703 1091 q 681 1085 688 1085 q 661 1088 676 1085 l 421 1137 q 406 1156 409 1141 l 406 1223 q 434 1244 414 1241 l 450 1241 l 697 1142 m 660 1031 l 661 1015 l 708 31 l 783 31 q 807 0 807 23 q 802 -15 807 -7 q 783 -31 798 -28 l 475 -31 q 453 -4 456 -25 q 471 28 453 19 q 581 31 506 31 l 597 31 l 595 67 l 585 260 l 198 260 l 185 239 l 54 31 l 202 29 q 223 4 223 23 q 207 -29 223 -21 l 192 -31 l -104 -31 q -129 0 -129 -26 q -125 17 -129 9 q -106 31 -122 25 l -18 31 l 610 1041 q 631 1050 616 1050 q 660 1031 653 1050 m 236 321 l 581 321 l 554 837 l 236 321 z "},"":{"ha":971,"x_min":-128,"x_max":953,"o":"m 949 1228 q 953 1191 953 1211 q 952 1173 953 1185 q 952 1156 952 1162 q 936 1137 946 1140 l 678 1085 q 659 1094 669 1085 q 648 1118 648 1103 q 663 1142 648 1132 l 917 1244 q 949 1228 940 1244 m 660 1031 l 661 1015 l 708 31 l 783 31 q 807 0 807 23 q 804 -15 807 -6 q 783 -31 796 -28 l 475 -31 q 455 -4 458 -26 q 472 28 455 21 q 581 31 506 31 l 597 31 l 597 67 l 585 260 l 198 260 l 185 239 l 56 31 l 204 29 q 224 4 224 23 q 207 -29 224 -21 l 192 -31 l -104 -31 q -128 0 -128 -26 q -124 16 -128 7 q -104 31 -120 25 l -16 31 l 610 1041 q 631 1050 616 1050 q 660 1031 653 1050 m 238 321 l 582 321 l 554 837 l 238 321 z "},"":{"ha":971,"x_min":-128,"x_max":1002,"o":"m 989 1142 q 1002 1122 999 1134 q 993 1093 1002 1101 q 968 1085 984 1085 l 717 1134 l 679 1132 l 434 1085 q 414 1095 422 1085 q 406 1118 406 1104 q 424 1144 406 1134 l 673 1244 l 733 1244 l 989 1142 m 660 1031 l 661 1015 l 708 31 l 783 31 q 804 15 799 25 q 808 0 808 4 q 804 -15 808 -9 q 783 -31 796 -28 l 475 -31 q 455 -4 458 -26 q 472 28 455 19 q 582 31 507 31 l 598 31 l 597 67 l 585 260 l 198 260 l 185 239 l 56 31 l 204 29 q 224 4 224 23 q 207 -29 224 -21 l 192 -31 l -104 -31 q -128 0 -128 -26 q -124 16 -128 7 q -104 31 -120 25 l -16 31 l 610 1041 q 631 1050 616 1050 q 660 1031 653 1050 m 238 321 l 582 321 l 554 837 l 238 321 z "},"":{"ha":971,"x_min":-128,"x_max":953,"o":"m 783 1147 l 813 1147 l 908 1241 q 921 1244 917 1244 q 936 1241 927 1244 q 953 1210 953 1232 q 898 1097 930 1159 l 843 1041 l 830 1037 l 769 1037 l 575 1134 l 547 1134 l 450 1038 q 437 1037 446 1037 q 414 1047 422 1037 q 406 1074 406 1053 l 461 1185 l 519 1241 l 529 1244 l 591 1242 l 783 1147 m 660 1031 l 661 1015 l 708 31 l 783 31 q 807 0 807 23 q 804 -15 807 -6 q 783 -31 796 -28 l 475 -31 q 455 -4 458 -26 q 472 28 455 21 q 581 31 506 31 l 597 31 l 597 67 l 585 260 l 198 260 l 185 239 l 56 31 l 204 29 q 224 4 224 23 q 207 -29 224 -21 l 192 -31 l -104 -31 q -128 0 -128 -26 q -124 16 -128 7 q -104 31 -120 25 l -16 31 l 610 1041 q 631 1050 616 1050 q 660 1031 653 1050 m 238 321 l 582 321 l 554 837 l 238 321 z "},"":{"ha":1116,"x_min":18,"x_max":1098,"o":"m 609 1230 l 659 1179 q 661 1164 661 1175 q 659 1150 661 1154 l 595 1088 q 582 1085 591 1085 q 507 1148 562 1085 q 502 1166 502 1160 q 505 1176 502 1170 q 568 1241 522 1198 q 581 1244 572 1244 q 609 1230 595 1244 m 1038 1236 l 1096 1179 q 1098 1164 1098 1175 q 1097 1156 1098 1159 l 1091 1144 l 1034 1088 q 1018 1084 1027 1084 q 1009 1087 1012 1084 l 999 1093 l 943 1150 q 939 1162 939 1156 q 946 1182 939 1175 l 1005 1241 q 1019 1244 1013 1244 q 1038 1236 1034 1244 m 799 1040 l 807 1027 l 854 31 l 928 31 q 949 15 946 25 q 952 -1 952 6 q 949 -13 952 -10 q 934 -31 947 -21 l 620 -31 q 600 -1 600 -26 q 608 19 600 7 q 634 31 616 31 l 744 31 l 732 260 l 343 260 l 336 246 l 201 31 l 349 29 q 370 4 367 23 q 363 -21 370 -12 q 336 -31 356 -31 l 41 -31 q 19 -12 23 -28 q 18 0 18 -9 q 27 23 18 15 q 62 31 37 31 l 128 31 l 755 1041 q 774 1050 764 1050 q 799 1040 789 1050 m 383 321 l 727 321 l 701 837 l 383 321 z "},"":{"ha":1068,"x_min":-31,"x_max":903,"o":"m 833 1242 q 852 1229 840 1239 l 880 1170 l 879 1154 l 852 1053 q 792 991 827 1025 q 761 987 783 987 l 805 31 l 880 31 q 901 15 892 28 q 903 -1 903 10 q 886 -29 903 -22 l 871 -31 l 572 -31 q 553 -13 560 -28 q 551 0 551 -9 q 554 17 551 10 q 575 31 557 23 l 695 31 l 682 260 l 295 261 q 223 146 270 223 q 153 31 176 69 l 301 29 q 320 12 312 25 q 321 0 321 7 q 311 -23 321 -16 l 301 -31 l -10 -31 q -31 -6 -28 -25 q -23 21 -31 12 q 13 31 -15 31 l 81 31 l 672 987 q 644 1019 656 994 q 625 1059 626 1056 l 623 1074 l 650 1178 q 711 1239 679 1210 l 723 1244 l 833 1242 m 815 1162 l 805 1182 l 739 1182 l 707 1150 l 689 1071 l 700 1050 l 764 1050 l 795 1082 l 815 1162 m 334 323 l 679 323 l 653 837 l 334 323 z "},"":{"ha":1116,"x_min":-128,"x_max":1050,"o":"m 1028 1047 q 1050 1021 1047 1043 l 999 716 q 985 701 997 705 q 969 697 972 697 q 940 722 940 697 l 940 987 l 703 987 l 581 565 l 703 563 l 749 742 q 767 758 754 752 q 802 744 793 758 q 807 729 807 736 q 805 717 807 723 l 707 324 q 689 308 703 314 q 658 317 667 308 q 648 337 648 326 q 688 502 661 393 l 565 503 l 430 31 l 663 31 l 802 264 q 827 273 814 273 q 855 252 846 270 l 855 238 l 754 -18 q 733 -31 748 -28 l 233 -31 q 214 -13 219 -28 q 213 -7 214 -12 q 213 0 213 -3 q 216 15 213 6 q 236 31 219 25 l 317 31 l 383 260 l 198 260 l 56 31 l 89 31 q 126 13 119 31 q 128 -1 128 9 q 125 -15 128 -10 q 104 -31 120 -28 l -107 -31 q -128 0 -128 -26 q -124 16 -128 7 q -104 31 -120 25 l -16 31 l 575 987 l 541 987 q 503 1019 503 987 q 527 1049 503 1044 l 626 1049 l 1028 1047 m 238 321 l 399 321 l 538 810 l 238 321 z "},"":{"ha":1019,"x_min":114,"x_max":1002,"o":"m 733 1049 q 843 996 733 1049 l 886 952 l 902 952 l 946 1038 q 971 1050 952 1047 q 1002 1021 1002 1046 q 997 996 1002 1022 l 950 714 q 931 698 946 703 q 927 697 930 698 q 923 697 924 697 q 902 703 917 697 q 890 725 893 710 l 890 818 l 846 905 l 802 947 l 720 989 l 588 989 l 500 945 l 409 851 l 317 710 l 267 557 l 223 383 l 224 245 l 268 114 l 312 72 l 396 31 l 528 31 l 613 75 l 704 167 l 752 263 q 776 273 761 273 q 802 258 793 273 q 807 243 807 251 q 805 233 807 236 l 752 126 l 645 21 l 543 -29 q 481 -31 524 -31 q 463 -66 468 -50 q 487 -65 475 -66 q 503 -65 499 -65 q 538 -85 529 -65 q 553 -117 538 -87 q 563 -155 563 -136 l 509 -263 l 455 -318 q 436 -323 449 -323 l 282 -323 q 265 -309 271 -321 q 254 -287 260 -298 q 242 -264 252 -283 q 235 -242 235 -251 q 267 -213 235 -213 q 293 -229 285 -213 q 309 -261 302 -245 l 424 -261 l 462 -221 l 499 -147 l 490 -129 l 402 -126 q 383 -98 383 -119 q 395 -62 383 -85 q 409 -31 406 -40 l 378 -31 l 227 22 l 169 79 q 114 241 150 132 l 114 397 l 167 603 l 216 744 l 317 895 l 421 997 l 579 1050 l 733 1049 z "},"":{"ha":1164,"x_min":19,"x_max":1050,"o":"m 990 1043 q 1002 1018 1002 1037 q 984 990 999 999 q 972 987 978 987 q 950 993 962 987 l 565 1138 q 551 1173 551 1148 q 551 1220 551 1220 q 584 1244 559 1244 q 598 1241 590 1244 l 990 1043 m 1028 950 q 1047 936 1040 947 l 1050 924 l 999 617 q 981 601 994 607 q 955 603 959 601 q 940 625 942 613 l 940 890 l 509 890 l 411 516 l 654 516 l 701 694 q 733 710 708 710 q 755 695 751 703 l 760 678 q 758 673 760 676 q 758 669 758 670 l 659 276 q 642 261 654 267 q 637 260 639 261 q 631 260 632 260 q 613 265 619 260 q 601 285 601 274 l 601 302 l 641 455 l 395 455 l 283 31 l 710 31 l 849 263 q 873 273 859 273 q 884 271 880 273 q 902 255 895 265 q 905 243 905 251 q 901 227 905 233 l 802 -18 q 782 -31 798 -28 l 38 -29 q 21 -12 25 -23 q 19 0 19 -9 q 28 23 19 15 q 62 31 37 31 l 170 31 l 397 890 l 283 892 q 263 911 271 893 q 271 946 263 937 q 286 952 289 952 l 1028 950 z "},"":{"ha":1164,"x_min":19,"x_max":1050,"o":"m 994 1234 q 998 1230 994 1234 q 1002 1210 1002 1226 l 1002 1164 q 994 1144 1002 1148 l 981 1135 l 585 987 q 554 1003 565 987 q 551 1022 551 1015 q 554 1032 551 1024 q 582 1053 556 1040 l 962 1242 q 994 1234 987 1242 m 1028 950 q 1047 936 1040 947 l 1050 924 l 999 617 q 981 601 994 607 q 955 603 959 601 q 940 625 942 613 l 940 890 l 509 890 l 411 516 l 654 516 l 701 694 q 733 710 708 710 q 755 695 751 703 l 760 678 q 758 673 760 676 q 758 669 758 670 l 659 276 q 642 261 654 267 q 637 260 639 261 q 631 260 632 260 q 613 265 619 260 q 601 285 601 274 l 601 302 l 641 455 l 395 455 l 283 31 l 710 31 l 849 263 q 873 273 859 273 q 884 271 880 273 q 902 255 895 265 q 905 243 905 251 q 901 227 905 233 l 802 -18 q 782 -31 798 -28 l 38 -29 q 21 -12 25 -23 q 19 0 19 -9 q 28 23 19 15 q 62 31 37 31 l 170 31 l 397 890 l 283 892 q 263 911 271 893 q 271 946 263 937 q 286 952 289 952 l 1028 950 z "},"":{"ha":1116,"x_min":-31,"x_max":1049,"o":"m 892 1141 q 903 1119 901 1134 q 884 1087 903 1093 l 870 1085 l 679 1132 l 488 1085 q 463 1094 471 1085 q 455 1122 455 1103 q 472 1144 456 1137 l 672 1244 q 691 1242 685 1244 l 892 1141 m 1031 1047 q 1049 1028 1044 1041 l 1049 1013 l 999 716 q 985 701 997 705 q 969 697 972 697 q 940 722 940 697 l 940 987 l 509 989 l 387 565 l 607 565 l 651 742 q 670 758 656 752 q 705 744 695 758 q 708 722 708 738 l 610 326 q 594 309 607 317 q 588 308 591 309 q 582 308 584 308 q 550 336 554 308 q 590 502 563 390 l 368 502 l 236 32 q 235 31 236 31 l 661 31 l 802 264 q 827 273 811 273 q 854 252 846 270 l 855 238 l 754 -18 q 733 -31 748 -28 l -10 -31 q -31 -6 -28 -25 q -23 21 -31 12 q 13 31 -15 31 l 122 31 l 396 987 l 285 989 q 263 1005 270 991 q 260 1018 260 1013 q 267 1038 260 1028 q 292 1049 274 1049 l 434 1050 l 1031 1047 z "},"":{"ha":1116,"x_min":-31,"x_max":1049,"o":"m 510 1230 l 560 1179 q 565 1163 565 1166 q 563 1159 565 1162 q 563 1156 563 1157 l 557 1145 l 499 1088 q 487 1085 494 1085 q 466 1091 474 1085 l 408 1151 q 405 1164 405 1160 q 408 1179 405 1170 l 471 1241 q 484 1244 475 1244 q 510 1230 502 1244 m 892 1238 l 949 1179 q 952 1164 952 1170 q 947 1147 952 1153 l 886 1088 q 873 1085 883 1085 q 859 1088 864 1085 l 796 1150 q 793 1164 793 1159 q 795 1175 793 1172 q 858 1241 813 1197 q 871 1245 862 1245 q 892 1238 881 1245 m 1031 1047 q 1049 1028 1044 1041 l 1049 1013 l 999 716 q 985 701 997 705 q 969 697 972 697 q 940 722 940 697 l 940 987 l 509 989 l 387 565 l 607 565 l 651 742 q 670 758 656 752 q 705 744 695 758 q 708 722 708 738 l 610 326 q 594 309 607 317 q 588 308 591 309 q 582 308 584 308 q 550 336 554 308 q 590 502 563 390 l 368 502 l 236 32 q 235 31 236 31 l 661 31 l 802 264 q 827 273 811 273 q 854 252 846 270 l 855 238 l 754 -18 q 733 -31 748 -28 l -10 -31 q -31 -6 -28 -25 q -23 21 -31 12 q 13 31 -15 31 l 122 31 l 396 987 l 285 989 q 263 1005 270 991 q 260 1018 260 1013 q 267 1038 260 1028 q 292 1049 274 1049 l 434 1050 l 1031 1047 z "},"":{"ha":631,"x_min":-31,"x_max":660,"o":"m 553 1140 q 565 1119 563 1129 q 555 1094 565 1103 q 528 1085 546 1085 q 516 1090 524 1085 q 506 1094 509 1094 q 497 1087 500 1094 l 484 1085 l 323 1138 q 308 1157 311 1145 l 309 1222 q 337 1244 314 1241 l 353 1241 l 553 1140 m 642 1047 q 660 1019 660 1040 q 650 995 660 1003 q 617 987 641 987 q 600 987 613 987 q 575 989 587 989 l 509 989 l 236 31 l 346 31 q 367 15 358 29 q 370 0 370 6 q 364 -22 370 -7 q 336 -31 356 -31 l -10 -31 q -31 -6 -28 -25 q -23 21 -31 12 q 13 31 -15 31 l 122 31 l 395 987 l 283 989 q 263 1005 270 991 q 260 1018 260 1013 q 267 1038 260 1028 q 292 1049 274 1049 l 434 1050 l 642 1047 z "},"":{"ha":631,"x_min":-31,"x_max":711,"o":"m 708 1223 q 710 1201 708 1217 q 711 1176 711 1185 q 695 1137 711 1150 l 484 1085 q 463 1094 471 1085 q 455 1122 455 1103 q 472 1144 456 1137 l 672 1242 q 681 1244 673 1244 q 708 1223 701 1244 m 642 1047 q 660 1031 653 1043 q 661 1019 661 1027 q 650 994 659 1002 q 617 987 641 987 q 600 987 613 987 q 575 989 587 989 l 509 989 l 236 31 l 346 31 q 367 15 358 29 q 370 0 370 6 q 364 -22 370 -7 q 336 -31 356 -31 l -10 -31 q -31 -6 -28 -25 q -23 21 -31 12 q 13 31 -15 31 l 122 31 l 396 987 l 285 989 q 263 1005 270 991 q 260 1018 260 1013 q 267 1038 260 1028 q 292 1049 274 1049 l 434 1050 l 642 1047 z "},"":{"ha":631,"x_min":-31,"x_max":710,"o":"m 543 1242 q 701 1138 595 1208 q 710 1115 710 1123 q 700 1093 707 1100 q 673 1085 692 1085 l 524 1134 l 487 1132 l 340 1084 q 309 1104 320 1084 q 308 1116 308 1109 q 312 1131 308 1126 l 323 1142 l 474 1242 l 481 1244 l 543 1242 m 642 1047 q 660 1019 660 1040 q 650 995 660 1003 q 617 987 641 987 q 600 987 613 987 q 575 989 587 989 l 509 989 l 236 31 l 346 31 q 367 15 358 29 q 370 0 370 6 q 364 -22 370 -7 q 336 -31 356 -31 l -10 -31 q -31 -6 -28 -25 q -23 21 -31 12 q 13 31 -15 31 l 122 31 l 395 987 l 283 989 q 263 1005 270 991 q 260 1018 260 1013 q 267 1038 260 1028 q 292 1049 274 1049 l 434 1050 l 642 1047 z "},"":{"ha":631,"x_min":-31,"x_max":661,"o":"m 411 1233 l 463 1179 q 468 1163 468 1172 q 461 1145 468 1153 l 403 1088 q 390 1085 399 1085 q 374 1088 378 1085 q 311 1150 364 1097 q 309 1159 311 1151 q 309 1173 309 1166 l 315 1185 l 373 1241 q 387 1245 378 1245 q 411 1233 402 1245 m 609 1230 l 659 1179 q 661 1164 661 1175 q 659 1150 661 1154 l 595 1088 q 582 1085 591 1085 q 507 1148 562 1085 q 502 1166 502 1160 q 505 1176 502 1170 q 568 1241 522 1198 q 581 1244 572 1244 q 609 1230 595 1244 m 642 1047 q 660 1031 653 1043 q 661 1019 661 1027 q 650 994 659 1002 q 617 987 641 987 q 600 987 613 987 q 575 989 587 989 l 509 989 l 236 31 l 346 31 q 367 15 358 29 q 370 0 370 6 q 364 -22 370 -7 q 336 -31 356 -31 l -10 -31 q -31 -6 -28 -25 q -23 21 -31 12 q 13 31 -15 31 l 122 31 l 396 987 l 285 989 q 263 1005 270 991 q 260 1018 260 1013 q 267 1038 260 1028 q 292 1049 274 1049 l 434 1050 l 642 1047 z "},"":{"ha":1213,"x_min":-31,"x_max":1195,"o":"m 698 1238 l 791 1145 l 912 1145 l 1057 1242 q 1068 1244 1062 1244 q 1081 1241 1078 1244 q 1100 1214 1097 1232 q 1091 1192 1100 1204 l 936 1038 l 924 1037 l 817 1037 l 804 1043 l 713 1132 l 591 1132 l 447 1038 q 434 1037 443 1037 q 419 1040 424 1037 q 405 1066 408 1050 l 409 1082 l 568 1241 l 578 1244 l 689 1242 l 698 1238 m 397 950 q 417 934 414 945 l 792 183 l 793 185 l 978 890 l 865 892 q 845 909 852 893 q 842 924 842 918 q 873 952 842 947 l 1173 950 q 1195 921 1195 946 q 1189 903 1195 914 q 1163 890 1182 893 l 1043 890 l 802 -16 q 769 -31 793 -31 q 748 -15 755 -28 l 371 739 l 185 31 l 298 31 q 320 12 314 28 q 321 0 321 7 q 311 -23 321 -16 l 301 -31 l -7 -31 q -28 -16 -21 -29 q -31 0 -31 -7 q -23 22 -31 13 q 13 31 -15 31 l 122 31 l 142 106 l 348 890 l 235 892 q 214 906 221 895 q 213 921 213 912 q 214 937 213 933 q 238 952 220 949 l 397 950 z "},"":{"ha":1068,"x_min":114,"x_max":1049,"o":"m 1034 1144 q 1049 1110 1049 1134 q 1034 1088 1046 1094 l 1024 1085 l 472 1135 q 453 1172 453 1144 q 455 1194 453 1178 q 458 1224 456 1210 q 478 1244 459 1238 l 497 1242 l 1034 1144 m 845 993 l 901 936 l 952 777 l 952 622 l 899 418 l 852 276 l 749 122 l 644 21 l 485 -31 l 333 -31 l 223 23 l 167 81 l 114 241 l 116 397 l 169 603 l 216 744 l 317 895 l 421 996 l 579 1049 l 735 1049 l 845 993 m 798 902 l 716 987 l 588 987 l 506 946 l 414 855 l 323 717 l 276 581 l 226 387 l 224 252 l 270 114 l 352 31 l 477 31 l 560 70 l 654 164 l 745 302 l 793 437 l 842 629 l 842 767 l 798 902 z "},"":{"ha":1068,"x_min":114,"x_max":1049,"o":"m 1038 1236 q 1043 1233 1038 1236 q 1049 1211 1049 1229 l 1049 1169 q 1034 1137 1049 1145 l 1024 1134 l 478 1085 q 455 1115 455 1090 q 461 1137 455 1125 l 472 1144 l 1012 1244 q 1038 1236 1028 1244 m 845 993 l 901 936 l 952 777 l 952 622 l 899 418 l 852 276 l 749 122 l 644 21 l 485 -31 l 333 -31 l 223 23 l 167 81 l 114 241 l 116 397 l 169 603 l 216 744 l 317 895 l 421 996 l 579 1049 l 735 1049 l 845 993 m 798 902 l 716 987 l 588 987 l 506 946 l 414 855 l 323 717 l 276 581 l 226 387 l 224 252 l 270 114 l 352 31 l 477 31 l 560 70 l 654 164 l 745 302 l 793 437 l 842 629 l 842 767 l 798 902 z "},"":{"ha":1068,"x_min":114,"x_max":1049,"o":"m 1037 1142 q 1049 1107 1049 1132 q 1019 1085 1044 1085 q 1000 1088 1015 1085 l 767 1134 l 727 1132 l 483 1085 q 464 1094 474 1085 q 455 1122 455 1103 q 472 1144 461 1141 l 722 1244 l 782 1244 l 1037 1142 m 845 993 l 901 936 l 952 777 l 952 622 l 899 418 l 852 276 l 749 122 l 644 21 l 485 -31 l 333 -31 l 223 23 l 167 81 l 114 241 l 116 397 l 169 603 l 216 744 l 317 895 l 421 996 l 579 1049 l 735 1049 l 845 993 m 798 902 l 716 987 l 588 987 l 506 946 l 414 855 l 323 717 l 276 581 l 226 387 l 224 252 l 270 114 l 352 31 l 477 31 l 560 70 l 654 164 l 745 302 l 793 437 l 842 629 l 842 767 l 798 902 z "},"":{"ha":1068,"x_min":114,"x_max":1002,"o":"m 832 1147 l 861 1147 l 956 1241 q 969 1244 962 1244 q 984 1241 975 1244 q 1002 1213 1002 1230 l 999 1201 l 947 1098 l 890 1038 l 880 1035 l 817 1035 l 622 1134 l 595 1134 l 499 1038 q 485 1035 490 1035 q 463 1045 472 1035 q 455 1072 455 1054 q 507 1181 472 1107 l 565 1239 l 578 1244 l 639 1242 l 832 1147 m 845 993 l 901 936 l 952 777 l 952 622 l 899 418 l 852 276 l 749 122 l 644 21 l 485 -31 l 333 -31 l 223 23 l 167 81 l 114 241 l 116 397 l 169 603 l 216 744 l 317 895 l 421 996 l 579 1049 l 735 1049 l 845 993 m 798 902 l 716 987 l 588 987 l 506 946 l 414 855 l 323 717 l 276 581 l 226 387 l 224 252 l 270 114 l 352 31 l 477 31 l 560 70 l 654 164 l 745 302 l 793 437 l 842 629 l 842 767 l 798 902 z "},"":{"ha":1116,"x_min":163,"x_max":1098,"o":"m 510 1230 l 560 1179 q 565 1163 565 1166 q 563 1156 565 1159 l 559 1145 l 499 1088 q 487 1085 494 1085 q 466 1091 474 1085 l 408 1151 q 405 1164 405 1160 q 408 1179 405 1170 l 471 1241 q 484 1244 475 1244 q 510 1230 502 1244 m 1038 1236 l 1096 1179 q 1098 1164 1098 1175 q 1097 1156 1098 1159 l 1091 1144 l 1034 1088 q 1018 1084 1027 1084 q 1009 1087 1012 1084 l 999 1093 l 943 1150 q 939 1162 939 1156 q 946 1182 939 1175 l 1005 1241 q 1019 1244 1013 1244 q 1038 1236 1034 1244 m 893 993 l 949 937 l 1000 780 l 1000 623 l 947 418 l 899 274 l 796 123 l 694 21 l 535 -31 l 378 -31 l 274 22 l 217 79 q 163 241 191 153 l 163 396 l 214 600 l 264 742 l 367 895 l 471 997 l 628 1049 l 785 1049 l 893 993 m 846 905 l 764 987 l 637 987 l 554 946 l 461 854 l 368 714 l 323 582 l 274 387 l 273 251 l 318 113 l 400 31 l 525 31 l 609 70 l 703 164 l 795 304 l 840 437 l 889 631 l 890 766 l 846 905 z "},"":{"ha":1068,"x_min":114,"x_max":952,"o":"m 845 994 l 855 983 l 903 1043 q 921 1049 915 1049 q 931 1047 928 1049 q 950 1031 947 1040 q 952 1019 952 1022 q 949 1008 952 1013 l 899 939 l 952 780 l 952 622 l 899 418 l 852 276 l 749 122 l 644 21 l 485 -31 l 333 -31 l 223 23 l 213 35 l 164 -25 q 145 -31 157 -31 l 136 -31 q 117 -13 125 -26 q 114 -1 114 -4 q 117 12 114 3 l 169 79 l 114 236 l 116 397 l 169 603 l 216 744 l 317 895 l 421 996 l 579 1049 l 735 1049 l 845 994 m 795 905 l 716 987 l 588 987 l 506 946 l 414 855 l 323 717 l 276 581 l 226 387 l 224 251 l 246 183 l 795 905 m 842 629 l 842 767 l 821 835 l 271 113 l 352 31 l 477 31 l 560 70 l 654 164 l 745 302 l 793 437 l 842 629 z "},"":{"ha":1213,"x_min":163,"x_max":1244,"o":"m 1034 1144 q 1049 1110 1049 1134 q 1034 1088 1046 1094 l 1024 1085 l 472 1135 q 453 1172 453 1144 q 455 1194 453 1178 q 458 1224 456 1210 q 478 1244 459 1238 l 497 1242 l 1034 1144 m 591 1049 q 610 1034 603 1044 q 613 1016 613 1025 q 611 1005 613 1012 q 594 990 609 997 q 461 987 550 987 l 273 283 l 273 153 l 314 72 l 396 31 l 581 31 l 710 73 l 798 161 l 849 315 l 1027 987 l 915 989 q 890 1019 890 993 q 894 1035 890 1027 q 915 1049 898 1043 l 1222 1047 q 1244 1024 1241 1044 q 1226 990 1244 999 l 1210 987 l 1091 987 l 854 131 q 744 22 818 92 q 584 -31 645 -12 l 381 -31 l 227 22 l 214 32 l 163 138 l 163 298 l 220 524 l 348 986 l 346 987 l 236 989 q 214 1006 219 991 q 211 1019 211 1012 q 216 1034 211 1025 q 236 1049 220 1043 l 591 1049 z "},"":{"ha":1213,"x_min":163,"x_max":1244,"o":"m 1038 1236 q 1043 1233 1038 1236 q 1049 1211 1049 1229 l 1049 1169 q 1034 1137 1049 1145 l 1024 1134 l 478 1085 q 455 1115 455 1090 q 461 1137 455 1125 l 472 1144 l 1012 1244 q 1038 1236 1028 1244 m 591 1049 q 610 1034 603 1044 q 613 1016 613 1025 q 611 1005 613 1012 q 594 990 609 997 q 461 987 550 987 l 273 283 l 273 153 l 314 72 l 396 31 l 581 31 l 710 73 l 798 161 l 849 315 l 1027 987 l 915 989 q 890 1019 890 993 q 894 1035 890 1027 q 915 1049 898 1043 l 1222 1047 q 1244 1024 1241 1044 q 1226 990 1244 999 l 1210 987 l 1091 987 l 854 131 q 744 22 818 92 q 584 -31 645 -12 l 381 -31 l 227 22 l 214 32 l 163 138 l 163 298 l 220 524 l 348 986 l 346 987 l 236 989 q 214 1006 219 991 q 211 1019 211 1012 q 216 1034 211 1025 q 236 1049 220 1043 l 591 1049 z "},"":{"ha":1213,"x_min":163,"x_max":1244,"o":"m 1037 1142 q 1049 1107 1049 1132 q 1019 1085 1044 1085 q 1000 1088 1015 1085 l 767 1134 l 727 1132 l 483 1085 q 464 1094 474 1085 q 455 1122 455 1103 q 472 1144 461 1141 l 722 1244 l 782 1244 l 1037 1142 m 591 1049 q 610 1034 603 1044 q 613 1016 613 1025 q 611 1005 613 1012 q 594 990 609 997 q 461 987 550 987 l 273 283 l 273 153 l 314 72 l 396 31 l 581 31 l 710 73 l 798 161 l 849 315 l 1027 987 l 915 989 q 890 1019 890 993 q 894 1035 890 1027 q 915 1049 898 1043 l 1222 1047 q 1244 1024 1241 1044 q 1226 990 1244 999 l 1210 987 l 1091 987 l 854 131 q 744 22 818 92 q 584 -31 645 -12 l 381 -31 l 227 22 l 214 32 l 163 138 l 163 298 l 220 524 l 348 986 l 346 987 l 236 989 q 214 1006 219 991 q 211 1019 211 1012 q 216 1034 211 1025 q 236 1049 220 1043 l 591 1049 z "},"":{"ha":1116,"x_min":66,"x_max":1147,"o":"m 411 1233 l 463 1179 q 468 1163 468 1172 q 461 1145 468 1153 l 403 1088 q 390 1085 399 1085 q 374 1088 378 1085 q 311 1150 364 1097 q 309 1159 311 1151 q 309 1173 309 1166 l 315 1185 l 373 1241 q 387 1245 378 1245 q 411 1233 402 1245 m 947 1230 l 997 1179 q 1002 1164 1002 1172 q 997 1150 1002 1156 l 936 1088 q 921 1085 931 1085 q 846 1148 905 1085 q 842 1164 842 1154 q 845 1176 842 1167 q 906 1241 857 1191 q 921 1244 911 1244 q 947 1230 939 1244 m 494 1049 q 516 1018 516 1041 q 512 1003 516 1009 q 491 989 506 991 l 364 987 l 177 283 l 177 153 l 219 69 l 299 31 l 484 31 l 613 75 l 701 161 l 752 317 l 930 987 l 818 989 q 796 1003 811 989 q 795 1019 795 1008 l 795 1031 q 811 1046 798 1040 l 826 1049 l 1126 1047 q 1147 1018 1147 1047 q 1144 1005 1147 1013 q 1123 989 1137 991 l 996 987 l 991 980 l 802 268 l 754 129 l 647 22 q 488 -31 568 -6 l 282 -31 l 131 21 l 117 35 l 66 136 l 67 302 l 123 522 l 251 987 l 139 989 q 119 1003 126 989 q 114 1021 114 1012 q 117 1031 114 1025 q 139 1049 123 1044 l 494 1049 z "},"":{"ha":1019,"x_min":164,"x_max":1147,"o":"m 949 1226 q 953 1189 953 1214 l 953 1156 q 936 1137 947 1140 l 925 1134 l 381 1085 q 361 1101 370 1087 q 358 1118 358 1110 q 367 1138 358 1129 l 378 1145 l 917 1244 q 949 1226 942 1244 m 494 1049 q 515 1031 509 1044 q 516 1018 516 1027 q 512 1002 516 1012 q 491 989 507 991 l 386 987 l 544 590 l 945 987 l 818 989 q 798 1003 808 989 q 795 1019 795 1008 q 796 1033 795 1028 q 811 1047 798 1037 l 826 1049 l 1123 1049 q 1145 1033 1138 1046 q 1147 1018 1147 1028 q 1144 1005 1147 1009 q 1123 989 1140 991 l 1033 987 l 560 515 l 428 31 l 541 31 q 562 15 553 29 q 565 -1 565 6 q 547 -29 565 -21 l 532 -31 l 183 -31 q 164 0 164 -23 q 169 16 164 4 q 188 31 175 28 l 317 31 l 453 529 l 271 987 l 185 989 q 166 1006 172 993 q 164 1019 164 1011 q 169 1035 164 1024 q 186 1049 173 1046 l 290 1050 l 494 1049 z "},"":{"ha":921,"x_min":16,"x_max":807,"o":"m 588 1049 q 642 1022 606 1040 q 697 997 678 1005 l 757 934 l 807 832 l 807 723 l 804 711 l 752 612 q 705 566 711 571 q 653 535 678 543 l 651 534 l 697 512 l 755 450 l 807 346 l 805 183 l 752 76 l 694 21 l 591 -29 l 576 -31 l 330 -29 l 223 23 q 211 47 214 31 l 214 63 l 277 125 q 292 128 286 128 q 305 125 296 128 q 400 31 336 92 l 528 31 q 595 66 562 48 q 656 119 635 87 l 697 202 l 697 333 l 653 419 l 610 461 l 525 502 l 490 502 q 455 534 455 502 q 490 565 455 565 q 502 563 493 565 q 513 563 509 563 q 521 563 516 563 q 528 565 527 565 l 613 609 l 656 653 l 697 735 l 697 818 l 653 905 l 609 947 q 559 972 600 950 q 506 989 529 989 q 490 987 496 989 l 415 949 l 172 81 l 62 -29 q 50 -31 57 -31 q 29 -23 35 -31 q 16 -1 19 -16 q 38 34 19 15 q 69 65 66 62 l 263 837 l 314 940 l 370 996 q 483 1050 406 1015 l 588 1049 z "},"":{"ha":1019,"x_min":116,"x_max":1002,"o":"m 749 848 q 758 821 758 839 q 742 796 758 807 l 726 793 l 323 945 q 308 964 314 950 l 309 1028 q 336 1050 314 1044 l 352 1047 l 749 848 m 540 708 q 593 682 557 700 q 648 657 629 664 l 659 644 q 700 524 672 603 l 751 697 q 773 710 757 707 q 801 698 786 710 q 824 708 810 708 q 855 679 855 708 l 848 645 l 749 296 l 710 139 l 710 60 l 741 31 l 813 31 l 901 122 l 946 213 q 968 224 952 224 q 1000 205 993 224 q 1002 195 1002 201 q 995 175 1002 188 q 987 158 989 163 l 947 79 l 843 -26 l 832 -31 l 672 -31 l 661 -26 l 604 32 q 600 54 600 40 l 600 89 q 553 23 585 67 l 444 -31 l 330 -31 l 221 23 l 167 81 l 116 185 l 116 348 l 169 502 l 271 654 l 282 660 l 434 710 l 540 708 m 606 607 l 528 647 l 443 647 l 361 606 l 274 475 l 226 336 l 224 154 l 265 73 l 345 31 l 428 31 l 512 73 l 598 204 l 647 342 l 648 474 l 606 607 z "},"":{"ha":1068,"x_min":163,"x_max":1050,"o":"m 902 1030 q 903 961 903 1008 q 889 943 899 949 l 437 793 q 414 803 422 793 q 405 830 405 813 q 422 852 408 845 l 867 1049 q 902 1030 895 1049 m 698 656 l 707 644 q 747 524 720 603 l 749 527 l 796 694 q 821 710 804 704 q 849 698 840 707 q 870 710 854 704 q 899 698 884 710 q 903 673 903 691 l 795 285 l 758 136 l 758 62 l 791 31 l 861 31 l 947 119 l 994 213 q 1015 224 1006 224 q 1050 195 1050 224 q 1041 170 1050 188 l 996 79 l 886 -29 l 876 -31 l 720 -31 l 707 -25 l 651 32 q 647 54 647 43 q 647 69 647 57 q 648 91 648 81 q 601 23 634 67 l 491 -31 l 378 -31 l 273 23 l 214 82 l 163 183 l 163 346 l 214 500 l 318 653 l 331 660 l 483 710 l 591 708 l 698 656 m 654 609 l 576 647 l 490 647 l 409 607 l 320 472 l 274 337 l 273 153 l 314 72 l 395 31 l 477 31 l 560 72 l 648 204 l 695 340 l 697 477 l 654 609 z "},"":{"ha":1019,"x_min":116,"x_max":1002,"o":"m 650 1041 l 805 836 q 808 824 808 830 q 804 810 808 815 q 774 793 791 793 l 763 796 l 622 934 l 340 842 q 312 858 320 842 q 308 874 308 864 q 314 892 308 880 l 326 901 l 622 1049 q 650 1041 644 1049 m 540 708 q 593 682 557 700 q 648 657 629 664 l 659 644 q 700 524 672 603 l 751 697 q 773 710 757 707 q 801 698 786 710 q 824 708 810 708 q 855 679 855 708 l 848 645 l 749 296 l 710 139 l 710 60 l 741 31 l 813 31 l 901 122 l 946 213 q 968 224 952 224 q 1000 205 993 224 q 1002 195 1002 201 q 995 175 1002 188 q 987 158 989 163 l 947 79 l 843 -26 l 832 -31 l 672 -31 l 661 -26 l 604 32 q 600 54 600 40 l 600 89 q 553 23 585 67 l 444 -31 l 330 -31 l 221 23 l 167 81 l 116 185 l 116 348 l 169 502 l 271 654 l 282 660 l 434 710 l 540 708 m 606 607 l 528 647 l 443 647 l 361 606 l 274 475 l 226 336 l 224 154 l 265 73 l 345 31 l 428 31 l 512 73 l 598 204 l 647 342 l 648 474 l 606 607 z "},"":{"ha":1019,"x_min":116,"x_max":1002,"o":"m 503 1044 l 688 952 l 716 952 l 811 1047 q 824 1050 820 1050 q 846 1040 837 1050 q 855 1018 855 1030 q 854 1008 855 1011 l 802 903 l 745 848 l 733 842 l 672 843 l 478 940 l 450 940 l 353 845 q 340 842 348 842 q 330 843 333 842 q 309 861 321 846 q 308 871 308 864 q 311 887 308 879 l 364 989 l 418 1043 q 431 1050 422 1047 l 472 1050 q 503 1044 491 1050 m 540 708 q 593 682 557 700 q 648 657 629 664 l 659 644 q 700 524 672 603 l 751 697 q 773 710 757 707 q 801 698 786 710 q 824 708 810 708 q 855 679 855 708 l 848 645 l 749 296 l 710 139 l 710 60 l 741 31 l 813 31 l 901 122 l 946 213 q 968 224 952 224 q 1000 205 993 224 q 1002 195 1002 201 q 995 175 1002 188 q 987 158 989 163 l 947 79 l 843 -26 l 832 -31 l 672 -31 l 661 -26 l 604 32 q 600 54 600 40 l 600 89 q 553 23 585 67 l 444 -31 l 330 -31 l 221 23 l 167 81 l 116 185 l 116 348 l 169 502 l 271 654 l 282 660 l 434 710 l 540 708 m 606 607 l 528 647 l 443 647 l 361 606 l 274 475 l 226 336 l 224 154 l 265 73 l 345 31 l 428 31 l 512 73 l 598 204 l 647 342 l 648 474 l 606 607 z "},"":{"ha":1019,"x_min":116,"x_max":1002,"o":"m 408 1041 l 465 984 q 468 969 468 975 q 463 955 468 961 l 402 893 q 389 890 393 890 q 374 893 383 890 q 311 956 342 923 q 309 964 311 958 q 309 980 309 971 l 315 990 l 373 1046 q 389 1050 378 1050 q 408 1041 400 1050 m 845 1041 l 901 986 q 905 969 902 981 q 903 965 905 968 q 903 961 903 962 l 898 950 l 839 893 q 824 890 830 890 q 805 896 813 890 l 749 955 q 745 969 745 961 q 748 984 745 975 q 811 1047 777 1015 q 824 1050 817 1050 q 845 1041 837 1050 m 540 708 q 593 682 557 700 q 648 657 629 664 l 659 644 q 700 524 672 603 l 751 697 q 773 710 757 707 q 801 698 786 710 q 824 708 810 708 q 855 679 855 708 l 848 645 l 749 296 l 710 139 l 710 60 l 741 31 l 813 31 l 901 122 l 946 213 q 968 224 952 224 q 1000 205 993 224 q 1002 195 1002 201 q 995 175 1002 188 q 987 158 989 163 l 947 79 l 843 -26 l 832 -31 l 672 -31 l 661 -26 l 604 32 q 600 54 600 40 l 600 89 q 553 23 585 67 l 444 -31 l 330 -31 l 221 23 l 167 81 l 116 185 l 116 348 l 169 502 l 271 654 l 282 660 l 434 710 l 540 708 m 606 607 l 528 647 l 443 647 l 361 606 l 274 475 l 226 336 l 224 154 l 265 73 l 345 31 l 428 31 l 512 73 l 598 204 l 647 342 l 648 474 l 606 607 z "},"":{"ha":1019,"x_min":116,"x_max":1002,"o":"m 641 1047 q 660 1031 651 1046 l 685 978 l 685 964 l 659 858 q 628 827 648 848 q 598 796 607 807 l 584 793 l 475 795 q 458 810 463 798 l 431 862 l 430 877 l 458 983 q 518 1044 471 1000 l 528 1049 l 641 1047 m 620 967 l 612 987 l 546 987 l 513 953 l 494 877 l 505 857 l 569 857 l 603 889 l 620 967 m 540 708 q 593 682 557 700 q 648 657 629 664 l 659 644 q 700 524 672 603 l 751 697 q 773 710 757 707 q 801 698 786 710 q 824 708 810 708 q 855 679 855 708 l 848 645 l 749 296 l 710 139 l 710 60 l 741 31 l 813 31 l 901 122 l 946 213 q 968 224 952 224 q 1000 205 993 224 q 1002 195 1002 201 q 995 175 1002 188 q 987 158 989 163 l 947 79 l 843 -26 l 832 -31 l 672 -31 l 661 -26 l 604 32 q 600 54 600 40 l 600 89 q 553 23 585 67 l 444 -31 l 330 -31 l 221 23 l 167 81 l 116 185 l 116 348 l 169 502 l 271 654 l 282 660 l 434 710 l 540 708 m 606 607 l 528 647 l 443 647 l 361 606 l 274 475 l 226 336 l 224 154 l 265 73 l 345 31 l 428 31 l 512 73 l 598 204 l 647 342 l 648 474 l 606 607 z "},"":{"ha":1261,"x_min":116,"x_max":1195,"o":"m 601 656 l 612 642 q 648 527 623 604 l 703 695 q 720 710 707 707 q 727 711 723 711 q 741 706 733 711 q 754 701 749 701 q 763 705 758 701 q 774 710 769 710 q 801 700 791 710 q 807 682 807 692 q 801 651 807 686 l 815 660 l 968 710 l 1011 710 q 1038 703 1030 710 l 1135 654 l 1144 642 l 1195 538 l 1194 521 l 1141 418 l 1129 408 l 981 309 l 815 257 l 672 221 q 661 172 661 204 q 661 148 661 163 q 663 125 663 132 q 661 109 663 114 l 739 31 l 824 31 l 953 75 l 1053 173 q 1066 176 1057 176 q 1085 170 1076 176 q 1100 144 1100 158 l 1096 131 l 989 23 q 827 -31 912 -6 l 717 -31 l 613 23 l 557 78 l 550 91 l 505 23 l 396 -31 l 333 -31 q 223 23 260 4 l 167 81 l 116 185 l 116 348 l 169 502 l 271 654 l 282 661 l 434 710 l 494 708 l 601 656 m 557 609 q 509 632 546 612 q 459 648 481 648 q 443 647 449 648 l 361 606 l 274 475 l 226 336 l 224 154 l 265 73 l 345 31 q 353 29 348 31 q 361 29 359 29 q 415 45 384 29 q 463 72 456 69 l 551 205 l 598 358 l 598 475 l 557 609 m 1094 606 l 1012 647 l 977 647 l 895 607 l 855 568 l 725 396 l 692 290 q 953 367 796 312 l 1091 458 l 1129 534 l 1094 606 z "},"":{"ha":826,"x_min":116,"x_max":758,"o":"m 588 708 q 698 656 588 708 l 707 644 l 758 543 l 758 477 q 743 458 754 462 q 705 455 732 455 l 670 455 q 650 474 657 459 q 648 543 648 496 q 678 565 656 562 l 656 609 l 573 648 l 443 648 l 359 606 l 268 468 l 224 330 l 224 153 l 265 70 l 348 31 l 436 31 l 562 73 l 657 214 q 679 224 670 224 q 691 221 688 224 q 708 204 704 219 q 704 176 708 182 l 603 25 l 591 18 l 437 -31 l 406 -31 q 390 -66 399 -45 l 431 -66 q 463 -82 456 -66 l 490 -136 q 491 -145 491 -139 q 487 -161 491 -153 q 480 -179 481 -175 l 437 -263 l 381 -318 l 368 -323 l 210 -323 q 182 -287 201 -321 q 170 -264 180 -283 q 163 -242 163 -251 q 169 -224 163 -232 q 194 -213 180 -213 q 221 -229 211 -213 q 238 -261 230 -245 l 351 -261 l 389 -221 l 427 -147 l 418 -129 l 329 -126 q 309 -98 309 -119 q 322 -63 309 -85 q 337 -32 334 -41 q 223 23 318 -25 l 167 81 l 116 185 l 116 348 l 169 502 l 271 654 l 282 660 l 434 710 l 588 708 z "},"":{"ha":873,"x_min":114,"x_max":758,"o":"m 749 848 q 758 821 758 839 q 742 796 758 807 l 726 793 l 323 945 q 308 964 314 950 l 309 1028 q 336 1050 314 1044 l 352 1047 l 749 848 m 588 708 q 698 656 588 708 l 707 644 l 758 540 l 757 522 l 704 418 q 546 311 682 402 l 378 257 l 224 219 l 223 153 l 265 70 l 348 31 l 436 31 l 565 75 l 664 172 q 678 176 669 176 q 689 175 685 176 q 708 155 700 173 q 710 145 710 153 q 705 129 710 135 l 600 23 l 590 18 l 439 -31 l 330 -31 l 221 23 l 166 81 l 114 185 l 114 348 l 167 502 l 271 654 l 282 660 l 434 710 l 588 708 m 656 607 l 576 647 l 443 647 l 361 606 l 274 475 l 224 336 l 224 283 q 518 367 375 317 l 654 458 l 692 534 l 656 607 z "},"":{"ha":873,"x_min":114,"x_max":857,"o":"m 847 1040 q 852 1035 847 1040 q 857 1011 857 1031 q 855 994 857 1006 q 855 971 855 981 q 846 947 855 956 l 836 940 l 389 793 q 362 808 368 793 q 356 824 356 814 q 361 840 356 833 l 371 851 l 818 1049 q 847 1040 837 1049 m 588 708 q 698 656 588 708 l 707 644 l 758 540 l 757 522 l 704 418 q 546 311 682 402 l 378 257 l 224 219 l 223 153 l 265 70 l 348 31 l 436 31 l 565 75 l 664 172 q 678 176 669 176 q 689 175 685 176 q 708 155 700 173 q 710 145 710 153 q 705 129 710 135 l 600 23 l 590 18 l 439 -31 l 330 -31 l 221 23 l 166 81 l 114 185 l 114 348 l 167 502 l 271 654 l 282 660 l 434 710 l 588 708 m 656 607 l 576 647 l 443 647 l 361 606 l 274 475 l 224 336 l 224 283 q 518 367 375 317 l 654 458 l 692 534 l 656 607 z "},"":{"ha":873,"x_min":114,"x_max":808,"o":"m 650 1041 l 805 836 q 808 824 808 830 q 804 810 808 815 q 774 793 791 793 l 763 796 l 622 934 l 340 842 q 312 858 320 842 q 308 874 308 864 q 314 892 308 880 l 326 901 l 622 1049 q 650 1041 644 1049 m 588 708 q 698 656 588 708 l 707 644 l 758 540 l 757 522 l 704 418 q 546 311 682 402 l 378 257 l 224 219 l 223 153 l 265 70 l 348 31 l 436 31 l 565 75 l 664 172 q 678 176 669 176 q 689 175 685 176 q 708 155 700 173 q 710 145 710 153 q 705 129 710 135 l 600 23 l 590 18 l 439 -31 l 330 -31 l 221 23 l 166 81 l 114 185 l 114 348 l 167 502 l 271 654 l 282 660 l 434 710 l 588 708 m 656 607 l 576 647 l 443 647 l 361 606 l 274 475 l 224 336 l 224 283 q 518 367 375 317 l 654 458 l 692 534 l 656 607 z "},"":{"ha":873,"x_min":114,"x_max":905,"o":"m 408 1041 l 465 984 q 468 969 468 975 q 463 955 468 961 l 402 893 q 389 890 393 890 q 374 893 383 890 q 311 956 342 923 q 309 964 311 958 q 309 980 309 971 l 315 990 l 373 1046 q 389 1050 378 1050 q 408 1041 400 1050 m 845 1041 l 901 986 q 905 969 902 981 q 903 965 905 968 q 903 961 903 962 l 898 950 l 839 893 q 824 890 830 890 q 805 896 813 890 l 749 955 q 745 969 745 961 q 748 984 745 975 q 811 1047 777 1015 q 824 1050 817 1050 q 845 1041 837 1050 m 588 708 q 698 656 588 708 l 707 644 l 758 540 l 757 522 l 704 418 q 546 311 682 402 l 378 257 l 224 219 l 223 153 l 265 70 l 348 31 l 436 31 l 565 75 l 664 172 q 678 176 669 176 q 689 175 685 176 q 708 155 700 173 q 710 145 710 153 q 705 129 710 135 l 600 23 l 590 18 l 439 -31 l 330 -31 l 221 23 l 166 81 l 114 185 l 114 348 l 167 502 l 271 654 l 282 660 l 434 710 l 588 708 m 656 607 l 576 647 l 443 647 l 361 606 l 274 475 l 224 336 l 224 283 q 518 367 375 317 l 654 458 l 692 534 l 656 607 z "},"":{"ha":679,"x_min":18,"x_max":613,"o":"m 307 990 l 553 849 q 565 824 565 839 q 534 793 562 793 q 521 796 528 793 l 176 946 q 161 980 161 955 q 161 999 161 984 q 165 1027 163 1013 q 179 1047 167 1040 q 194 1050 185 1047 q 202 1049 199 1050 l 307 990 m 358 704 l 417 645 l 419 632 l 419 477 l 323 185 l 323 62 l 353 31 l 424 31 l 510 119 l 557 214 q 579 224 568 224 q 604 215 595 224 q 613 188 613 205 l 559 79 l 455 -28 l 441 -31 l 283 -31 l 273 -26 l 214 34 l 211 48 l 213 205 l 309 494 l 309 617 l 277 648 l 205 648 l 120 560 l 73 466 q 51 453 65 455 q 19 474 25 456 q 18 484 18 477 q 31 519 18 484 l 70 598 l 176 703 q 188 710 179 707 l 346 708 l 358 704 z "},"":{"ha":679,"x_min":18,"x_max":663,"o":"m 663 1005 q 661 987 663 999 q 661 965 661 974 q 647 945 661 953 l 248 793 q 223 802 233 793 q 213 826 213 810 q 221 848 213 840 l 622 1049 q 631 1050 625 1050 q 663 1005 663 1050 m 358 704 l 417 645 l 419 632 l 419 477 l 323 185 l 323 62 l 353 31 l 424 31 l 510 119 l 557 214 q 579 224 568 224 q 604 215 595 224 q 613 188 613 205 l 559 79 l 455 -28 l 441 -31 l 283 -31 l 273 -26 l 214 34 l 211 48 l 213 205 l 309 494 l 309 617 l 277 648 l 205 648 l 120 560 l 73 466 q 51 453 65 455 q 19 474 25 456 q 18 484 18 477 q 31 519 18 484 l 70 598 l 176 703 q 188 710 179 707 l 346 708 l 358 704 z "},"":{"ha":679,"x_min":18,"x_max":613,"o":"m 458 1041 l 612 836 q 613 826 613 833 q 605 803 613 813 q 579 793 597 793 l 566 798 l 428 934 l 198 842 q 176 849 183 842 q 163 874 163 858 q 173 896 163 887 l 428 1049 q 436 1050 437 1050 q 458 1041 452 1047 m 358 704 l 417 645 l 419 632 l 419 477 l 323 185 l 323 62 l 353 31 l 424 31 l 510 119 l 557 214 q 579 224 568 224 q 604 215 595 224 q 613 188 613 205 l 559 79 l 455 -28 l 441 -31 l 283 -31 l 273 -26 l 214 34 l 211 48 l 213 205 l 309 494 l 309 617 l 277 648 l 205 648 l 120 560 l 73 466 q 51 453 65 455 q 19 474 25 456 q 18 484 18 477 q 31 519 18 484 l 70 598 l 176 703 q 188 710 179 707 l 346 708 l 358 704 z "},"":{"ha":679,"x_min":18,"x_max":710,"o":"m 265 1040 l 320 984 q 323 971 323 975 q 320 956 323 968 q 257 893 307 940 q 243 890 251 890 q 229 893 238 890 q 166 956 195 923 q 164 965 166 958 q 164 980 164 972 q 227 1047 175 994 q 243 1050 236 1050 q 265 1040 257 1050 m 657 1037 l 707 984 q 710 971 710 980 q 708 961 710 964 l 704 950 l 644 893 q 629 890 638 890 q 616 893 625 890 l 553 956 q 550 971 550 965 q 553 984 550 975 l 616 1047 q 629 1050 625 1050 q 657 1037 647 1047 m 358 704 l 417 645 l 419 632 l 419 477 l 323 185 l 323 62 l 353 31 l 424 31 l 510 119 l 557 214 q 579 224 568 224 q 604 215 595 224 q 613 188 613 205 l 559 79 l 455 -28 l 441 -31 l 283 -31 l 273 -26 l 214 34 l 211 48 l 213 205 l 309 494 l 309 617 l 277 648 l 205 648 l 120 560 l 73 466 q 51 453 65 455 q 19 474 25 456 q 18 484 18 477 q 31 519 18 484 l 70 598 l 176 703 q 188 710 179 707 l 346 708 l 358 704 z "},"":{"ha":1116,"x_min":18,"x_max":1100,"o":"m 697 1044 l 789 952 l 912 952 l 1056 1047 q 1066 1050 1062 1050 q 1081 1047 1072 1050 q 1100 1016 1100 1035 q 1078 986 1100 1008 l 936 845 l 924 842 l 817 843 l 807 848 l 714 939 l 591 939 l 447 843 q 441 842 444 843 q 436 842 437 842 q 406 871 411 842 l 409 889 l 566 1046 l 578 1050 l 686 1049 l 697 1044 m 358 704 l 417 645 l 419 632 l 419 560 l 519 659 l 620 708 l 738 708 l 845 654 l 899 600 l 903 590 l 903 475 l 807 185 l 807 62 l 839 31 l 909 31 l 996 119 l 1043 214 q 1065 224 1053 224 q 1097 204 1090 224 q 1087 164 1097 185 q 1071 131 1071 132 l 1044 78 l 936 -29 l 921 -31 l 766 -29 l 755 -23 l 700 34 l 697 45 l 697 201 l 793 494 l 793 569 l 716 648 l 637 648 l 550 604 l 459 512 l 367 326 l 268 -18 q 245 -31 260 -31 q 217 -21 232 -31 q 197 -31 210 -31 q 171 -23 179 -31 q 163 -3 163 -15 q 167 15 163 3 q 172 32 172 28 l 271 381 l 309 543 l 309 617 l 277 648 l 205 648 l 120 560 l 73 466 q 51 453 65 455 q 19 474 25 456 q 18 484 18 477 q 31 519 18 484 l 70 598 l 176 703 q 188 710 179 707 l 346 708 l 358 704 z "},"":{"ha":873,"x_min":116,"x_max":758,"o":"m 749 848 q 758 821 758 839 q 742 796 758 807 l 726 793 l 323 945 q 308 964 314 950 l 309 1028 q 336 1050 314 1044 l 352 1047 l 749 848 m 540 708 q 593 682 557 700 q 648 656 629 664 l 707 597 l 758 493 l 758 331 l 705 176 l 603 25 l 591 18 l 439 -31 l 330 -31 l 221 23 l 167 81 l 116 185 l 116 348 l 169 502 l 271 654 l 282 660 l 434 710 l 540 708 m 609 606 l 528 647 l 443 647 l 361 606 l 274 475 l 226 336 l 224 154 l 265 73 l 345 31 l 428 31 l 512 72 l 598 204 l 647 342 l 648 524 l 609 606 z "},"":{"ha":873,"x_min":116,"x_max":857,"o":"m 847 1040 q 852 1035 847 1040 q 857 1011 857 1031 q 855 994 857 1006 q 855 971 855 981 q 846 947 855 956 l 836 940 l 389 793 q 362 808 368 793 q 356 824 356 814 q 361 840 356 833 l 371 851 l 818 1049 q 847 1040 837 1049 m 540 708 q 593 682 557 700 q 648 656 629 664 l 707 597 l 758 493 l 758 331 l 705 176 l 603 25 l 591 18 l 439 -31 l 330 -31 l 221 23 l 167 81 l 116 185 l 116 348 l 169 502 l 271 654 l 282 660 l 434 710 l 540 708 m 609 606 l 528 647 l 443 647 l 361 606 l 274 475 l 226 336 l 224 154 l 265 73 l 345 31 l 428 31 l 512 72 l 598 204 l 647 342 l 648 524 l 609 606 z "},"":{"ha":873,"x_min":116,"x_max":808,"o":"m 650 1041 l 805 836 q 808 824 808 830 q 804 810 808 815 q 774 793 791 793 l 763 796 l 622 934 l 340 842 q 312 858 320 842 q 308 874 308 864 q 314 892 308 880 l 326 901 l 622 1049 q 650 1041 644 1049 m 540 708 q 593 682 557 700 q 648 656 629 664 l 707 597 l 758 493 l 758 331 l 705 176 l 603 25 l 591 18 l 439 -31 l 330 -31 l 221 23 l 167 81 l 116 185 l 116 348 l 169 502 l 271 654 l 282 660 l 434 710 l 540 708 m 609 606 l 528 647 l 443 647 l 361 606 l 274 475 l 226 336 l 224 154 l 265 73 l 345 31 l 428 31 l 512 72 l 598 204 l 647 342 l 648 524 l 609 606 z "},"":{"ha":873,"x_min":116,"x_max":855,"o":"m 503 1044 l 688 952 l 716 952 l 811 1047 q 824 1050 820 1050 q 846 1040 837 1050 q 855 1018 855 1030 q 854 1008 855 1011 l 802 903 l 745 848 l 733 842 l 672 843 l 478 940 l 450 940 l 353 845 q 340 842 348 842 q 330 843 333 842 q 309 861 321 846 q 308 871 308 864 q 311 887 308 879 l 364 989 l 418 1043 q 431 1050 422 1047 l 472 1050 q 503 1044 491 1050 m 540 708 q 593 682 557 700 q 648 656 629 664 l 707 597 l 758 493 l 758 331 l 705 176 l 603 25 l 591 18 l 439 -31 l 330 -31 l 221 23 l 167 81 l 116 185 l 116 348 l 169 502 l 271 654 l 282 660 l 434 710 l 540 708 m 609 606 l 528 647 l 443 647 l 361 606 l 274 475 l 226 336 l 224 154 l 265 73 l 345 31 l 428 31 l 512 72 l 598 204 l 647 342 l 648 524 l 609 606 z "},"":{"ha":873,"x_min":116,"x_max":905,"o":"m 408 1041 l 465 984 q 468 969 468 975 q 463 955 468 961 l 402 893 q 389 890 393 890 q 374 893 383 890 q 311 956 342 923 q 309 964 311 958 q 309 980 309 971 l 315 990 l 373 1046 q 389 1050 378 1050 q 408 1041 400 1050 m 845 1041 l 901 986 q 905 969 902 981 q 903 965 905 968 q 903 961 903 962 l 898 950 l 839 893 q 824 890 830 890 q 805 896 813 890 l 749 955 q 745 969 745 961 q 749 984 745 977 q 811 1047 773 1012 q 824 1050 817 1050 q 845 1041 837 1050 m 540 708 q 593 682 557 700 q 648 656 629 664 l 707 597 l 758 493 l 758 331 l 705 176 l 603 25 l 591 18 l 439 -31 l 330 -31 l 221 23 l 167 81 l 116 185 l 116 348 l 169 502 l 271 654 l 282 660 l 434 710 l 540 708 m 609 606 l 528 647 l 443 647 l 361 606 l 274 475 l 226 336 l 224 154 l 265 73 l 345 31 l 428 31 l 512 72 l 598 204 l 647 342 l 648 524 l 609 606 z "},"":{"ha":826,"x_min":66,"x_max":661,"o":"m 459 700 l 513 645 q 518 629 518 638 q 515 619 518 625 q 450 553 496 595 q 436 550 441 550 q 422 554 428 550 l 359 616 q 356 631 356 625 q 361 647 356 638 l 421 705 q 436 710 427 710 q 459 700 450 710 m 641 368 q 660 352 651 367 q 661 340 661 348 q 651 315 661 324 q 617 307 641 307 q 601 307 615 307 q 575 308 587 308 l 91 309 q 70 324 75 312 q 66 340 66 336 q 69 353 66 349 q 91 370 75 367 l 641 368 m 324 107 q 353 79 327 104 q 371 48 371 63 q 370 38 371 41 l 364 28 l 305 -28 q 290 -31 302 -31 l 279 -31 q 214 34 279 -31 q 211 50 211 43 q 214 63 211 54 l 277 125 q 290 128 286 128 q 324 107 309 128 z "},"":{"ha":776,"x_min":114,"x_max":760,"o":"m 540 708 q 648 656 575 691 l 679 626 q 703 649 691 637 q 733 661 716 661 q 760 628 760 657 q 755 617 760 623 q 717 576 751 610 l 758 490 l 758 331 l 704 176 l 603 25 l 591 18 l 439 -31 l 330 -31 l 221 23 q 194 53 217 28 q 169 29 182 41 q 144 16 157 16 q 117 34 126 19 q 114 50 114 43 q 157 103 114 60 l 116 186 l 116 348 l 169 502 l 271 654 l 282 660 l 434 710 l 540 708 m 609 606 l 528 647 l 443 647 l 361 606 l 274 475 l 226 336 l 224 172 l 625 572 l 609 606 m 598 204 l 647 342 l 648 506 l 248 107 l 265 73 l 345 31 l 428 31 l 512 72 l 598 204 z "},"":{"ha":1116,"x_min":18,"x_max":1097,"o":"m 845 849 q 855 827 855 840 q 845 799 855 811 q 818 793 835 793 l 419 945 q 405 978 405 953 q 406 1000 405 981 q 406 1027 408 1015 q 433 1050 408 1043 l 450 1047 l 845 849 m 358 704 l 417 645 l 419 632 l 419 477 l 323 185 l 323 109 l 400 31 l 480 31 l 565 75 l 656 167 l 748 352 l 846 692 q 871 710 854 708 q 898 698 889 707 q 920 710 901 703 q 946 700 940 707 q 952 673 952 692 l 842 285 l 807 136 l 807 62 l 839 31 l 909 31 l 996 119 l 1043 214 q 1065 224 1053 224 q 1097 204 1090 224 q 1087 164 1097 185 q 1071 131 1071 132 l 1044 78 l 936 -29 l 921 -31 l 766 -29 l 755 -23 l 700 34 q 697 119 697 57 l 598 22 l 491 -31 l 378 -29 l 274 23 l 217 78 l 213 91 l 213 201 l 309 496 l 309 617 l 277 648 l 205 648 l 120 560 l 73 466 q 51 453 65 455 q 19 474 25 456 q 18 484 18 477 q 31 519 18 484 l 70 598 l 176 703 q 188 710 179 707 l 346 710 l 358 704 z "},"":{"ha":1116,"x_min":18,"x_max":1097,"o":"m 950 1031 q 953 997 953 1011 q 952 980 953 991 q 952 962 952 968 q 936 942 947 947 l 485 793 q 456 814 463 793 q 458 839 456 835 l 469 851 l 917 1049 q 950 1031 943 1049 m 358 704 l 417 645 l 419 632 l 419 477 l 323 185 l 323 109 l 400 31 l 480 31 l 565 75 l 656 167 l 748 352 l 846 692 q 871 710 854 708 q 898 698 889 707 q 920 710 901 703 q 946 700 940 707 q 952 673 952 692 l 842 285 l 807 136 l 807 62 l 839 31 l 909 31 l 996 119 l 1043 214 q 1065 224 1053 224 q 1097 204 1090 224 q 1087 164 1097 185 q 1071 131 1071 132 l 1044 78 l 936 -29 l 921 -31 l 766 -29 l 755 -23 l 700 34 q 697 119 697 57 l 598 22 l 491 -31 l 378 -29 l 274 23 l 217 78 l 213 91 l 213 201 l 309 496 l 309 617 l 277 648 l 205 648 l 120 560 l 73 466 q 51 453 65 455 q 19 474 25 456 q 18 484 18 477 q 31 519 18 484 l 70 598 l 176 703 q 188 710 179 707 l 346 710 l 358 704 z "},"":{"ha":1116,"x_min":18,"x_max":1097,"o":"m 761 1027 l 903 835 q 903 829 903 833 q 905 824 905 826 q 895 802 902 810 q 871 793 883 793 q 850 804 861 793 q 829 826 839 815 l 719 934 l 439 842 q 417 851 428 842 q 406 877 406 859 q 417 896 406 886 l 722 1049 q 729 1050 725 1050 q 761 1027 744 1050 m 358 704 l 417 645 l 419 632 l 419 477 l 323 185 l 323 109 l 400 31 l 480 31 l 565 75 l 656 167 l 748 352 l 846 692 q 871 710 854 708 q 898 698 889 707 q 920 710 901 703 q 946 700 940 707 q 952 673 952 692 l 842 285 l 807 136 l 807 62 l 839 31 l 909 31 l 996 119 l 1043 214 q 1065 224 1053 224 q 1097 204 1090 224 q 1087 164 1097 185 q 1071 131 1071 132 l 1044 78 l 936 -29 l 921 -31 l 766 -29 l 755 -23 l 700 34 q 697 119 697 57 l 598 22 l 491 -31 l 378 -29 l 274 23 l 217 78 l 213 91 l 213 201 l 309 496 l 309 617 l 277 648 l 205 648 l 120 560 l 73 466 q 51 453 65 455 q 19 474 25 456 q 18 484 18 477 q 31 519 18 484 l 70 598 l 176 703 q 188 710 179 707 l 346 710 l 358 704 z "},"":{"ha":1116,"x_min":18,"x_max":1097,"o":"m 506 1041 l 560 986 q 565 968 565 968 q 563 961 565 964 l 557 950 l 500 893 q 485 890 488 890 q 466 896 472 890 l 409 955 q 406 969 406 964 q 409 984 406 975 q 472 1047 444 1025 q 484 1050 478 1050 q 506 1041 497 1050 m 945 1040 l 997 984 q 1002 971 1002 977 q 999 956 1002 965 q 937 893 989 945 q 923 890 928 890 q 908 893 917 890 q 845 956 874 923 q 843 965 845 958 q 843 980 843 972 q 908 1047 851 990 q 921 1050 917 1050 q 945 1040 934 1050 m 358 704 l 417 645 l 419 632 l 419 477 l 323 185 l 323 109 l 400 31 l 480 31 l 565 75 l 656 167 l 748 352 l 846 692 q 871 710 854 708 q 898 698 889 707 q 920 710 901 703 q 946 700 940 707 q 952 673 952 692 l 842 285 l 807 136 l 807 62 l 839 31 l 909 31 l 996 119 l 1043 214 q 1065 224 1053 224 q 1097 204 1090 224 q 1087 164 1097 185 q 1071 131 1071 132 l 1044 78 l 936 -29 l 921 -31 l 766 -29 l 755 -23 l 700 34 q 697 119 697 57 l 598 22 l 491 -31 l 378 -29 l 274 23 l 217 78 l 213 91 l 213 201 l 309 496 l 309 617 l 277 648 l 205 648 l 120 560 l 73 466 q 51 453 65 455 q 19 474 25 456 q 18 484 18 477 q 31 519 18 484 l 70 598 l 176 703 q 188 710 179 707 l 346 710 l 358 704 z "},"":{"ha":1019,"x_min":18,"x_max":953,"o":"m 950 1031 q 953 997 953 1011 q 952 980 953 991 q 952 962 952 968 q 936 942 947 947 l 485 793 q 456 814 463 793 q 458 839 456 835 l 469 851 l 917 1049 q 950 1031 943 1049 m 358 704 l 417 645 l 419 632 l 419 477 l 323 185 l 323 109 l 400 31 l 480 31 l 565 75 l 656 167 l 748 352 l 846 692 q 871 710 854 708 q 898 698 889 707 q 920 710 901 703 q 946 700 940 707 q 952 673 952 692 l 752 -28 l 705 -161 l 603 -315 l 591 -323 l 439 -371 l 282 -370 l 175 -315 l 120 -263 l 114 -251 q 113 -223 114 -238 q 113 -205 113 -208 q 123 -173 113 -185 l 179 -119 q 195 -114 192 -114 q 199 -114 197 -114 q 204 -116 202 -116 l 213 -122 l 271 -180 q 274 -194 274 -185 q 251 -232 274 -211 q 214 -267 219 -261 l 299 -308 l 430 -308 l 513 -265 l 604 -129 l 659 38 l 675 95 l 598 22 l 491 -31 l 378 -29 l 274 23 l 217 78 l 213 91 l 213 201 l 309 496 l 309 617 l 277 648 l 205 648 l 120 560 l 73 466 q 51 453 65 455 q 19 474 25 456 q 18 484 18 477 q 31 519 18 484 l 70 598 l 176 703 q 188 710 179 707 l 346 710 l 358 704 z "},"":{"ha":1019,"x_min":18,"x_max":952,"o":"m 506 1041 l 560 986 q 565 968 565 968 q 563 961 565 964 l 557 950 l 500 893 q 485 890 488 890 q 466 896 472 890 l 409 955 q 406 969 406 964 q 409 984 406 975 q 472 1047 444 1025 q 484 1050 478 1050 q 506 1041 497 1050 m 893 1041 l 949 984 q 952 971 952 978 q 928 931 952 953 q 889 895 893 899 q 867 890 884 890 l 855 896 l 796 956 q 793 969 793 962 q 793 975 793 972 q 795 980 795 978 l 801 990 l 858 1046 q 874 1050 864 1050 q 893 1041 886 1050 m 358 704 l 417 645 l 419 632 l 419 477 l 323 185 l 323 109 l 400 31 l 480 31 l 565 75 l 656 167 l 748 352 l 846 692 q 871 710 854 708 q 898 698 889 707 q 920 710 901 703 q 946 700 940 707 q 952 673 952 692 l 752 -28 l 705 -161 l 603 -315 l 591 -323 l 439 -371 l 282 -370 l 175 -315 l 120 -263 l 114 -251 q 113 -223 114 -238 q 113 -205 113 -208 q 123 -173 113 -185 l 179 -119 q 195 -114 192 -114 q 199 -114 197 -114 q 204 -116 202 -116 l 213 -122 l 271 -180 q 274 -194 274 -185 q 251 -232 274 -211 q 214 -267 219 -261 l 299 -308 l 430 -308 l 513 -265 l 604 -129 l 659 38 l 675 95 l 598 22 l 491 -31 l 378 -29 l 274 23 l 217 78 l 213 91 l 213 201 l 309 496 l 309 617 l 277 648 l 205 648 l 120 560 l 73 466 q 51 453 65 455 q 19 474 25 456 q 18 484 18 477 q 31 519 18 484 l 70 598 l 176 703 q 188 710 179 707 l 346 710 l 358 704 z "}," ":{"ha":1019,"x_min":0,"x_max":0,"o":""}}}
